<?xml version="1.0" encoding="utf-8"?>
<!-- Generator: Adobe Illustrator 19.0.0, SVG Export Plug-In . SVG Version: 6.00 Build 0)  -->
<svg version="1.1" id="icons" xmlns="http://www.w3.org/2000/svg" xmlns:xlink="http://www.w3.org/1999/xlink" x="0px" y="0px"
	 viewBox="0 0 64 64" style="enable-background:new 0 0 64 64;" xml:space="preserve">
<style type="text/css">
	.st0{display:none;}
	.st1{display:inline;}
	.st2{fill:#5EDFC5;}
	.st3{fill:none;stroke:#414042;stroke-miterlimit:10;}
	.st4{display:inline;fill:#D1D3D4;}
	.st5{display:inline;fill:#F1F2F2;}
	.st6{display:inline;fill:#FFFFFF;}
	.st7{display:inline;fill:none;stroke:#414042;stroke-miterlimit:10;}
	.st8{display:inline;fill:#F5AB35;}
	.st9{fill:#414042;}
	.st10{fill:#FFFFFF;}
	.st11{fill:#36D7B7;}
	.st12{display:inline;fill:#36D7B7;}
	.st13{display:inline;fill:#E6E7E8;}
	.st14{fill:#A7A9AC;}
	.st15{display:inline;fill:none;stroke:#414042;stroke-miterlimit:10;stroke-dasharray:1;}
	.st16{fill:none;stroke:#414042;stroke-linecap:round;stroke-miterlimit:10;}
	.st17{fill:#939598;}
	.st18{display:inline;fill:#BCBEC0;}
	.st19{display:inline;fill:none;stroke:#BCBEC0;stroke-miterlimit:10;}
	.st20{display:inline;fill:none;stroke:#414042;stroke-linecap:square;stroke-miterlimit:10;}
	.st21{display:inline;fill:#58595B;}
	.st22{fill:#F5AB35;}
	.st23{fill:#58595B;}
	.st24{fill:#F1F2F2;}
	.st25{fill:#E6E7E8;}
	.st26{opacity:0.26;fill:#231F20;}
	.st27{display:inline;fill:#F7BC5D;}
	.st28{display:inline;fill:#F9CD86;}
	.st29{fill:#F9CD86;}
	.st30{display:inline;fill:#939598;}
	.st31{display:inline;opacity:0.22;fill:#231F20;}
	.st32{display:inline;fill:#A7A9AC;}
	.st33{display:inline;fill:#414042;}
	.st34{display:inline;fill:#29A189;}
	.st35{display:inline;fill:#86E7D4;}
	.st36{display:inline;fill:#808285;}
	.st37{display:inline;fill:none;stroke:#414042;stroke-miterlimit:10;stroke-dasharray:3;}
	.st38{fill:#D1D3D4;}
	.st39{fill:#6D6E71;}
	.st40{display:inline;fill:none;stroke:#414042;stroke-linecap:round;stroke-miterlimit:10;}
	.st41{fill:#BCBEC0;}
	.st42{fill:#F7BC5D;}
	.st43{fill:#86E7D4;}
	.st44{fill:#B88028;}
</style>
<g id="XMLID_111_" class="st0">
	<g id="XMLID_59_" class="st1">
		<path id="XMLID_64_" class="st2" d="M49.8,47.3c0-0.4-0.3-0.8-0.8-0.8c-0.1,0-0.2,0-0.3,0.1c-0.1-0.3-0.4-0.5-0.8-0.6
			c0-0.1,0-0.1,0-0.2c0-0.7-0.6-1.3-1.3-1.3c-0.3,0-0.6,0.1-0.9,0.3c-0.1-1.2-1.1-2.2-2.4-2.2c-1.1,0-2,0.7-2.3,1.7
			c-0.1,0-0.2,0-0.3,0c-0.8,0-1.4,0.5-1.6,1.2c-0.2-0.1-0.4-0.1-0.5-0.1c-0.8,0-1.5,0.7-1.5,1.5c0,0.3,0.1,0.5,0.2,0.7h12.2
			C49.8,47.6,49.8,47.4,49.8,47.3z"/>
		<line id="XMLID_61_" class="st3" x1="37.5" y1="47.7" x2="45" y2="47.7"/>
		<line id="XMLID_60_" class="st3" x1="47" y1="47.7" x2="45.4" y2="47.7"/>
	</g>
	<g id="XMLID_51_" class="st1">
		<path id="XMLID_67_" class="st2" d="M43.8,25c0-0.3-0.3-0.6-0.6-0.6c-0.1,0-0.2,0-0.3,0.1c-0.1-0.2-0.3-0.4-0.6-0.5
			c0-0.1,0-0.1,0-0.2c0-0.6-0.5-1-1-1c-0.3,0-0.5,0.1-0.7,0.3c-0.1-1-0.9-1.8-1.9-1.8c-0.9,0-1.6,0.6-1.8,1.4c-0.1,0-0.2,0-0.3,0
			c-0.6,0-1.1,0.4-1.3,1c-0.1-0.1-0.3-0.1-0.4-0.1c-0.7,0-1.2,0.5-1.2,1.2c0,0.2,0.1,0.4,0.2,0.6h9.8C43.7,25.2,43.8,25.1,43.8,25z"
			/>
		<line id="XMLID_66_" class="st3" x1="33.9" y1="25.3" x2="39.9" y2="25.3"/>
		<line id="XMLID_65_" class="st3" x1="41.5" y1="25.3" x2="40.2" y2="25.3"/>
	</g>
	<g id="XMLID_13_" class="st1">
		<path id="XMLID_54_" class="st2" d="M24.8,43.4c0-0.4-0.3-0.7-0.7-0.7c-0.1,0-0.2,0-0.3,0.1c-0.1-0.3-0.4-0.5-0.7-0.5
			c0-0.1,0-0.1,0-0.2c0-0.7-0.5-1.2-1.2-1.2c-0.3,0-0.6,0.1-0.8,0.3c-0.1-1.1-1-2-2.2-2c-1,0-1.8,0.7-2.1,1.6c-0.1,0-0.2,0-0.3,0
			c-0.7,0-1.3,0.5-1.4,1.1c-0.2-0.1-0.3-0.1-0.5-0.1c-0.8,0-1.4,0.6-1.4,1.4c0,0.3,0.1,0.5,0.2,0.7h11.3
			C24.8,43.7,24.8,43.6,24.8,43.4z"/>
		<line id="XMLID_53_" class="st3" x1="13.4" y1="43.8" x2="20.3" y2="43.8"/>
		<line id="XMLID_47_" class="st3" x1="22.2" y1="43.8" x2="20.7" y2="43.8"/>
	</g>
	<g id="XMLID_1009_" class="st1">
		<line id="XMLID_1013_" class="st3" x1="30.4" y1="40.9" x2="31.2" y2="40.9"/>
		<line id="XMLID_1012_" class="st3" x1="32.4" y1="40.9" x2="33.2" y2="40.9"/>
		<line id="XMLID_1011_" class="st3" x1="31.8" y1="42.3" x2="31.8" y2="41.5"/>
		<line id="XMLID_1010_" class="st3" x1="31.8" y1="40.2" x2="31.8" y2="39.5"/>
	</g>
	<g id="XMLID_56_" class="st1">
		<line id="XMLID_93_" class="st3" x1="34.7" y1="16.2" x2="35.5" y2="16.2"/>
		<line id="XMLID_92_" class="st3" x1="36.8" y1="16.2" x2="37.6" y2="16.2"/>
		<line id="XMLID_63_" class="st3" x1="36.2" y1="17.6" x2="36.2" y2="16.8"/>
		<line id="XMLID_62_" class="st3" x1="36.2" y1="15.6" x2="36.2" y2="14.8"/>
	</g>
	<g id="XMLID_68_" class="st1">
		<line id="XMLID_72_" class="st3" x1="22" y1="47.9" x2="22.7" y2="47.9"/>
		<line id="XMLID_71_" class="st3" x1="23.9" y1="47.9" x2="24.6" y2="47.9"/>
		<line id="XMLID_70_" class="st3" x1="23.3" y1="49.2" x2="23.3" y2="48.5"/>
		<line id="XMLID_69_" class="st3" x1="23.3" y1="47.3" x2="23.3" y2="46.6"/>
	</g>
	<g id="XMLID_78_" class="st1">
		<line id="XMLID_82_" class="st3" x1="47.7" y1="23.8" x2="48.6" y2="23.8"/>
		<line id="XMLID_81_" class="st3" x1="49.9" y1="23.8" x2="50.8" y2="23.8"/>
		<line id="XMLID_80_" class="st3" x1="49.2" y1="25.3" x2="49.2" y2="24.4"/>
		<line id="XMLID_79_" class="st3" x1="49.2" y1="23.1" x2="49.2" y2="22.2"/>
	</g>
	<g id="XMLID_83_" class="st1">
		<line id="XMLID_87_" class="st3" x1="21.8" y1="22.2" x2="22.6" y2="22.2"/>
		<line id="XMLID_86_" class="st3" x1="24" y1="22.2" x2="24.8" y2="22.2"/>
		<line id="XMLID_85_" class="st3" x1="23.3" y1="23.8" x2="23.3" y2="22.9"/>
		<line id="XMLID_84_" class="st3" x1="23.3" y1="21.6" x2="23.3" y2="20.7"/>
	</g>
	<g id="XMLID_73_" class="st1">
		<line id="XMLID_77_" class="st3" x1="16.4" y1="36" x2="17.4" y2="36"/>
		<line id="XMLID_76_" class="st3" x1="19" y1="36" x2="20" y2="36"/>
		<line id="XMLID_75_" class="st3" x1="18.2" y1="37.8" x2="18.2" y2="36.8"/>
		<line id="XMLID_74_" class="st3" x1="18.2" y1="35.2" x2="18.2" y2="34.3"/>
	</g>
	<polygon id="XMLID_91_" class="st4" points="38.7,42.3 38.8,42.3 42.4,33.6 15.2,23.3 	"/>
	<polygon id="XMLID_90_" class="st4" points="37.5,34.4 38.8,41.8 38.7,42.7 20.5,28.2 	"/>
	<polygon id="XMLID_89_" class="st5" points="15.2,23.3 26.3,38.5 26.3,38.6 37.5,34.5 	"/>
	<polygon id="XMLID_88_" class="st6" points="42.4,33.7 50.7,29.9 50.7,29.8 15.2,23.3 	"/>
	<path id="XMLID_46_" class="st7" d="M50.6,29.9l-8.2,3.7c0,0,0,0,0,0l-3.6,8.5c0,0-0.1,0-0.1,0l-1.2-7.6c0,0,0,0-0.1,0l-10.9,4
		c-0.2,0.1-0.3,0-0.4-0.1L15.3,23.4c0,0,0-0.1,0.1-0.1L50.6,29.9C50.6,29.9,50.6,29.9,50.6,29.9z"/>
</g>
<g id="XMLID_110_" class="st0">
	<circle id="XMLID_94_" class="st8" cx="32" cy="24.7" r="9.1"/>
	<g id="XMLID_96_" class="st1">
		<g id="XMLID_178_">
			<path id="XMLID_217_" class="st9" d="M31.6,28.9v-0.7c-0.9-0.1-1.6-0.5-2.4-1.2l0.9-1.1c0.5,0.5,1,0.8,1.4,0.9v-1.5
				c-0.7-0.2-1.2-0.4-1.6-0.7c-0.3-0.3-0.5-0.7-0.5-1.3c0-0.6,0.2-1,0.6-1.4c0.4-0.4,0.9-0.6,1.5-0.7v-0.5h1.1v0.5
				c0.7,0.1,1.3,0.4,2,0.8l-0.8,1.2c-0.4-0.3-0.8-0.5-1.2-0.6V24c0.7,0.2,1.3,0.4,1.6,0.8c0.3,0.3,0.5,0.8,0.5,1.3
				c0,0.6-0.2,1.1-0.6,1.4c-0.4,0.4-0.9,0.6-1.5,0.7v0.7H31.6z M31.6,22.5c-0.3,0.1-0.4,0.3-0.4,0.6c0,0.3,0.1,0.5,0.4,0.6V22.5z
				 M33.2,26.1c0-0.1,0-0.3-0.1-0.4c-0.1-0.1-0.2-0.2-0.4-0.3v1.2C33,26.7,33.2,26.4,33.2,26.1z"/>
		</g>
	</g>
	<line id="XMLID_102_" class="st7" x1="31.8" y1="11.5" x2="31.8" y2="14.8"/>
	<line id="XMLID_101_" class="st7" x1="35.2" y1="11.9" x2="34.4" y2="15.1"/>
	<line id="XMLID_95_" class="st7" x1="38.4" y1="13.1" x2="36.8" y2="16"/>
	<line id="XMLID_103_" class="st7" x1="41.2" y1="15.2" x2="38.9" y2="17.5"/>
	<line id="XMLID_104_" class="st7" x1="43.4" y1="17.9" x2="40.5" y2="19.6"/>
	<line id="XMLID_105_" class="st7" x1="44.7" y1="21.1" x2="41.5" y2="21.9"/>
	<line id="XMLID_106_" class="st7" x1="45.3" y1="24.5" x2="41.9" y2="24.5"/>
	<line id="XMLID_107_" class="st7" x1="44.9" y1="27.9" x2="41.7" y2="27.1"/>
	<line id="XMLID_108_" class="st7" x1="43.6" y1="31.1" x2="40.7" y2="29.5"/>
	<line id="XMLID_109_" class="st7" x1="41.6" y1="33.9" x2="39.2" y2="31.6"/>
	<line id="XMLID_114_" class="st7" x1="25.6" y1="36.4" x2="27.3" y2="33.5"/>
	<line id="XMLID_115_" class="st7" x1="22.9" y1="34.3" x2="25.2" y2="32"/>
	<line id="XMLID_116_" class="st7" x1="20.7" y1="31.6" x2="23.5" y2="29.9"/>
	<line id="XMLID_117_" class="st7" x1="19.3" y1="28.5" x2="22.5" y2="27.6"/>
	<line id="XMLID_118_" class="st7" x1="18.7" y1="25.1" x2="22.1" y2="25"/>
	<line id="XMLID_120_" class="st7" x1="19.1" y1="21.6" x2="22.3" y2="22.5"/>
	<line id="XMLID_121_" class="st7" x1="20.3" y1="18.4" x2="23.2" y2="20"/>
	<line id="XMLID_122_" class="st7" x1="22.4" y1="15.6" x2="24.7" y2="17.9"/>
	<line id="XMLID_123_" class="st7" x1="25" y1="13.4" x2="26.7" y2="16.3"/>
	<line id="XMLID_124_" class="st7" x1="28.2" y1="12" x2="29.1" y2="15.2"/>
	<g id="XMLID_499_" class="st1">
		<path id="XMLID_472_" class="st10" d="M38.9,33.7c-0.6,0-1.2,0.5-1.2,1.2v-1.2c0-0.6-0.5-1.2-1.2-1.2c-0.6,0-1.2,0.5-1.2,1.2v-1.2
			c0-0.6-0.5-1.2-1.2-1.2c-0.6,0-1.2,0.5-1.2,1.2v-3.7c0-0.6-0.5-1.2-1.2-1.2s-1.2,0.5-1.2,1.2v7.4H29c-0.4,0-0.8,0.4-0.8,0.8v5.2
			c0,0.4,0.2,0.8,0.6,1l1,0.4c0.4,0.2,0.6,0.6,0.6,1v2.3h7.8v-2.6c0-0.3,0.1-0.5,0.3-0.7l1.2-1.2c0.2-0.2,0.3-0.5,0.3-0.8v-6.7
			C40,34.2,39.5,33.7,38.9,33.7z"/>
		<path id="XMLID_460_" class="st3" d="M32.9,36.5v-7.8c0-0.6-0.5-1.2-1.2-1.2l0,0c-0.6,0-1.2,0.5-1.2,1.2v9.5"/>
		<path id="XMLID_461_" class="st3" d="M35.3,34.4v-2c0-0.6-0.5-1.2-1.2-1.2l0,0c-0.6,0-1.2,0.5-1.2,1.2v2"/>
		<path id="XMLID_462_" class="st3" d="M37.6,36.5v-2.8c0-0.6-0.5-1.2-1.2-1.2l0,0c-0.6,0-1.2,0.5-1.2,1.2v2.8"/>
		<path id="XMLID_464_" class="st3" d="M37.6,36v-1.1c0-0.6,0.5-1.2,1.2-1.2l0,0c0.6,0,1.2,0.5,1.2,1.2v6.7c0,0.3-0.1,0.6-0.3,0.8
			l-1.2,1.2c-0.2,0.2-0.3,0.4-0.3,0.7v2.6"/>
		<path id="XMLID_463_" class="st3" d="M30.6,36.1h-1.7c-0.4,0-0.8,0.4-0.8,0.8v5.2c0,0.4,0.2,0.8,0.6,1l1,0.4
			c0.4,0.2,0.6,0.6,0.6,1v2.3"/>
		<rect id="XMLID_459_" x="29.3" y="44.7" class="st2" width="10" height="7.8"/>
		<rect id="XMLID_470_" x="29.3" y="44.7" class="st11" width="3" height="7.8"/>
	</g>
</g>
<g id="XMLID_128_" class="st0">
	<path id="XMLID_243_" class="st4" d="M51,46.8H12.8c-0.6,0-1-0.5-1-1V22.9c0-0.6,0.4-1,1-1H51c0.6,0,1,0.4,1,1v22.9
		C52,46.3,51.6,46.8,51,46.8z"/>
	<path id="XMLID_134_" class="st7" d="M11.8,27.3v-4.4c0-0.6,0.4-1,1-1H51c0.6,0,1,0.4,1,1v4.4"/>
	<rect id="XMLID_242_" x="13.7" y="24.1" class="st6" width="36.1" height="19.5"/>
	<path id="XMLID_241_" class="st5" d="M51.5,48.1H12.2c-0.9,0-1.7-0.7-1.9-1.6l-0.3-1.7h43.9l-0.2,1.5
		C53.5,47.3,52.6,48.1,51.5,48.1z"/>
	<path id="XMLID_240_" class="st7" d="M51.5,48.1H12.2c-0.9,0-1.7-0.7-1.9-1.6l-0.3-1.7h43.9l-0.2,1.5
		C53.5,47.3,52.6,48.1,51.5,48.1z"/>
	<rect id="XMLID_112_" x="14.3" y="32.5" class="st12" width="2.5" height="11.1"/>
	<rect id="XMLID_113_" x="17.9" y="21.1" class="st12" width="2.5" height="22.5"/>
	<rect id="XMLID_125_" x="21.5" y="17.7" class="st12" width="2.5" height="25.9"/>
	<rect id="XMLID_126_" x="25.1" y="15.9" class="st12" width="2.5" height="27.7"/>
	<rect id="XMLID_127_" x="28.7" y="21.5" class="st12" width="2.5" height="22.1"/>
	<rect id="XMLID_132_" x="32.4" y="20.4" class="st12" width="2.5" height="23.2"/>
	<rect id="XMLID_131_" x="36" y="24.8" class="st12" width="2.5" height="18.8"/>
	<rect id="XMLID_130_" x="39.6" y="26.3" class="st12" width="2.5" height="17.3"/>
	<rect id="XMLID_129_" x="43.2" y="19.7" class="st12" width="2.5" height="24"/>
	<rect id="XMLID_133_" x="46.8" y="25.2" class="st12" width="2.5" height="18.4"/>
	<line id="XMLID_137_" class="st7" x1="11.8" y1="29.7" x2="11.8" y2="38.1"/>
	<line id="XMLID_135_" class="st7" x1="52" y1="29.7" x2="52" y2="38.1"/>
</g>
<g id="XMLID_314_" class="st0">
	<path id="XMLID_151_" class="st5" d="M34.6,41.4v5c0,1.5-1.3,2.8-2.8,2.8l0,0c-1.5,0-2.8-1.3-2.8-2.8v-5H34.6z"/>
	<path id="XMLID_150_" class="st7" d="M34.6,41.4v5c0,1.5-1.3,2.8-2.8,2.8l0,0c-1.5,0-2.8-1.3-2.8-2.8v-5H34.6z"/>
	<circle id="XMLID_148_" class="st8" cx="32" cy="25.3" r="10.2"/>
	<rect id="XMLID_147_" x="27.1" y="29.4" class="st8" width="9.8" height="11.2"/>
	<rect id="XMLID_141_" x="27" y="40" class="st13" width="10" height="2.8"/>
	<rect id="XMLID_140_" x="27" y="40" class="st7" width="10" height="2.8"/>
	<line id="XMLID_139_" class="st7" x1="29.3" y1="44.4" x2="32.5" y2="44.4"/>
	<line id="XMLID_138_" class="st7" x1="31.8" y1="46" x2="35" y2="46"/>
	<g id="XMLID_182_" class="st1">
		<g id="XMLID_245_">
			<path id="XMLID_246_" class="st9" d="M31.2,32.2V31c-1.4-0.2-2.7-0.8-3.8-1.9l1.5-1.8c0.9,0.7,1.6,1.2,2.3,1.4v-2.4
				c-1.1-0.3-2-0.7-2.5-1.2c-0.5-0.5-0.8-1.2-0.8-2.1c0-0.9,0.3-1.7,0.9-2.3c0.6-0.6,1.4-1,2.4-1.1v-0.8h1.7v0.8
				c1.1,0.2,2.2,0.6,3.3,1.4l-1.3,1.9c-0.7-0.5-1.3-0.8-1.9-1v2.4c1.2,0.3,2,0.7,2.6,1.2c0.6,0.5,0.8,1.2,0.8,2.2
				c0,0.9-0.3,1.7-0.9,2.3c-0.6,0.6-1.5,1-2.5,1.1v1.1H31.2z M31.2,21.8c-0.5,0.2-0.7,0.5-0.7,0.9c0,0.4,0.2,0.8,0.7,1V21.8z
				 M33.7,27.7c0-0.2-0.1-0.4-0.2-0.6c-0.1-0.2-0.3-0.3-0.7-0.4v2C33.5,28.6,33.7,28.2,33.7,27.7z"/>
		</g>
	</g>
	<g id="XMLID_957_" class="st1">
		<line id="XMLID_961_" class="st3" x1="21.3" y1="35" x2="22.3" y2="35"/>
		<line id="XMLID_960_" class="st3" x1="23.8" y1="35" x2="24.8" y2="35"/>
		<line id="XMLID_959_" class="st3" x1="23" y1="36.7" x2="23" y2="35.7"/>
		<line id="XMLID_958_" class="st3" x1="23" y1="34.2" x2="23" y2="33.2"/>
	</g>
	<g id="XMLID_209_" class="st1">
		<line id="XMLID_213_" class="st3" x1="12.4" y1="34.7" x2="13.7" y2="34.7"/>
		<line id="XMLID_212_" class="st3" x1="15.7" y1="34.7" x2="16.9" y2="34.7"/>
		<line id="XMLID_211_" class="st3" x1="14.7" y1="36.9" x2="14.7" y2="35.7"/>
		<line id="XMLID_210_" class="st3" x1="14.7" y1="33.7" x2="14.7" y2="32.4"/>
	</g>
	<g id="XMLID_152_" class="st1">
		<line id="XMLID_187_" class="st3" x1="48.1" y1="26.4" x2="49.1" y2="26.4"/>
		<line id="XMLID_186_" class="st3" x1="50.6" y1="26.4" x2="51.6" y2="26.4"/>
		<line id="XMLID_185_" class="st3" x1="49.8" y1="28.2" x2="49.8" y2="27.2"/>
		<line id="XMLID_183_" class="st3" x1="49.8" y1="25.7" x2="49.8" y2="24.7"/>
	</g>
	<g id="XMLID_198_" class="st1">
		<line id="XMLID_202_" class="st3" x1="40" y1="38.9" x2="41.3" y2="38.9"/>
		<line id="XMLID_201_" class="st3" x1="43.4" y1="38.9" x2="44.7" y2="38.9"/>
		<line id="XMLID_200_" class="st3" x1="42.3" y1="41.3" x2="42.3" y2="40"/>
		<line id="XMLID_199_" class="st3" x1="42.3" y1="37.9" x2="42.3" y2="36.5"/>
	</g>
	<g id="XMLID_204_" class="st1">
		<line id="XMLID_208_" class="st3" x1="19" y1="18.8" x2="20.3" y2="18.8"/>
		<line id="XMLID_207_" class="st3" x1="22.4" y1="18.8" x2="23.7" y2="18.8"/>
		<line id="XMLID_206_" class="st3" x1="21.3" y1="21.2" x2="21.3" y2="19.8"/>
		<line id="XMLID_205_" class="st3" x1="21.3" y1="17.7" x2="21.3" y2="16.4"/>
	</g>
	<g id="XMLID_188_" class="st1">
		<line id="XMLID_197_" class="st3" x1="38.4" y1="16.5" x2="39.3" y2="16.5"/>
		<line id="XMLID_196_" class="st3" x1="40.9" y1="16.5" x2="41.9" y2="16.5"/>
		<line id="XMLID_195_" class="st3" x1="40.1" y1="18.3" x2="40.1" y2="17.3"/>
		<line id="XMLID_194_" class="st3" x1="40.1" y1="15.8" x2="40.1" y2="14.8"/>
	</g>
	<circle id="XMLID_980_" class="st7" cx="46.7" cy="17" r="0.9"/>
	<circle id="XMLID_184_" class="st7" cx="20.3" cy="41.3" r="0.9"/>
	<circle id="XMLID_149_" class="st7" cx="16.3" cy="25.9" r="1.1"/>
	<circle id="XMLID_203_" class="st7" cx="41.9" cy="32.5" r="0.9"/>
</g>
<g id="XMLID_264_" class="st0">
	<path id="XMLID_231_" class="st7" d="M35,31.7h-3.3L30.2,35c0,0.1-0.1,0.1-0.2,0l-2.3-3.3l-11,0"/>
	<line id="XMLID_215_" class="st7" x1="44" y1="31.7" x2="51.7" y2="31.7"/>
	<g id="XMLID_425_" class="st1">
		<line id="XMLID_434_" class="st3" x1="29.3" y1="37.4" x2="26.1" y2="40.5"/>
		<path id="XMLID_431_" class="st14" d="M28.9,22.7c-4.2,4.2-4.2,10.9,0,15.1s10.9,4.2,15.1,0c4.2-4.2,4.2-10.9,0-15.1
			C39.8,18.5,33,18.5,28.9,22.7z M29.7,23.5c3.7-3.7,9.7-3.7,13.4,0s3.7,9.7,0,13.4c-3.7,3.7-9.7,3.7-13.4,0
			C26,33.2,26,27.2,29.7,23.5z"/>
		<path id="XMLID_429_" class="st2" d="M28.5,41.1L16.7,52.9c-0.8,0.8-2.2,0.8-3,0L27,39.6L28.5,41.1z"/>
		<path id="XMLID_428_" class="st11" d="M27,39.6L13.7,52.9c-0.8-0.8-0.8-2.2,0-3l11.8-11.8L27,39.6z"/>
		<line id="XMLID_427_" class="st3" x1="26.5" y1="43.3" x2="23.3" y2="40.2"/>
		<line id="XMLID_426_" class="st3" x1="25.2" y1="44.6" x2="22" y2="41.5"/>
	</g>
	<path id="XMLID_214_" class="st7" d="M34.5,32l4.8-13.6c0-0.1,0.2-0.1,0.3,0L44.4,32"/>
	<path id="XMLID_250_" class="st8" d="M26,18c0,3.4-2.7,6.1-6.1,6.1V18H26z"/>
	<path id="XMLID_235_" class="st4" d="M27.5,18c0-4.2-3.4-7.6-7.6-7.6c-4.2,0-7.6,3.4-7.6,7.6c0,4.2,3.4,7.6,7.6,7.6V18H27.5z"/>
	<path id="XMLID_233_" class="st5" d="M24,18c0-2.3-1.9-4.1-4.1-4.1c-2.3,0-4.1,1.9-4.1,4.1c0,2.3,1.9,4.1,4.1,4.1V18H24z"/>
	<path id="XMLID_236_" class="st15" d="M48.7,35.4c-0.7,1.6-1.7,3-2.9,4.2c-1.2,1.2-2.6,2.2-4.2,2.9c-1.6,0.7-3.3,1-5.2,1
		c-1.8,0-3.6-0.4-5.2-1"/>
</g>
<g id="XMLID_794_" class="st0">
	<path id="XMLID_253_" class="st4" d="M20.2,21.1L20,21.4c-0.4,0.4-0.9,0.4-1.3,0l-2.2-2.2c-0.4-0.4-0.4-0.9,0-1.3l0.2-0.2
		c0.4-0.4,0.9-0.4,1.3,0l2.2,2.2C20.5,20.2,20.5,20.8,20.2,21.1z"/>
	<path id="XMLID_265_" class="st4" d="M40.5,21.1l0.2,0.2c0.4,0.4,0.9,0.4,1.3,0l2.2-2.2c0.4-0.4,0.4-0.9,0-1.3L44,17.7
		c-0.4-0.4-0.9-0.4-1.3,0l-2.2,2.2C40.1,20.2,40.1,20.8,40.5,21.1z"/>
	<path id="XMLID_268_" class="st4" d="M20.2,41.9L20,41.7c-0.4-0.4-0.9-0.4-1.3,0l-2.2,2.2c-0.4,0.4-0.4,0.9,0,1.3l0.2,0.2
		c0.4,0.4,0.9,0.4,1.3,0l2.2-2.2C20.5,42.8,20.5,42.2,20.2,41.9z"/>
	<path id="XMLID_266_" class="st4" d="M40.5,41.9l0.2-0.2c0.4-0.4,0.9-0.4,1.3,0l2.2,2.2c0.4,0.4,0.4,0.9,0,1.3L44,45.4
		c-0.4,0.4-0.9,0.4-1.3,0l-2.2-2.2C40.1,42.8,40.1,42.2,40.5,41.9z"/>
	<g id="XMLID_284_" class="st1">
		<line id="XMLID_288_" class="st3" x1="46.4" y1="23.9" x2="47" y2="23.9"/>
		<line id="XMLID_287_" class="st3" x1="47.9" y1="23.9" x2="48.5" y2="23.9"/>
		<line id="XMLID_286_" class="st3" x1="47.5" y1="25" x2="47.5" y2="24.4"/>
		<line id="XMLID_285_" class="st3" x1="47.5" y1="23.5" x2="47.5" y2="22.9"/>
	</g>
	<g id="XMLID_299_" class="st1">
		<line id="XMLID_303_" class="st3" x1="19" y1="49.4" x2="20" y2="49.4"/>
		<line id="XMLID_302_" class="st3" x1="21.6" y1="49.4" x2="22.6" y2="49.4"/>
		<line id="XMLID_301_" class="st3" x1="20.8" y1="51.2" x2="20.8" y2="50.2"/>
		<line id="XMLID_300_" class="st3" x1="20.8" y1="48.6" x2="20.8" y2="47.6"/>
	</g>
	<g id="XMLID_325_" class="st1">
		<line id="XMLID_329_" class="st3" x1="10.8" y1="14.6" x2="11.8" y2="14.6"/>
		<line id="XMLID_328_" class="st3" x1="13.4" y1="14.6" x2="14.4" y2="14.6"/>
		<line id="XMLID_327_" class="st3" x1="12.6" y1="16.4" x2="12.6" y2="15.4"/>
		<line id="XMLID_326_" class="st3" x1="12.6" y1="13.8" x2="12.6" y2="12.8"/>
	</g>
	<g id="XMLID_320_" class="st1">
		<line id="XMLID_324_" class="st3" x1="9.8" y1="27.8" x2="10.6" y2="27.8"/>
		<line id="XMLID_323_" class="st3" x1="12" y1="27.8" x2="12.8" y2="27.8"/>
		<line id="XMLID_322_" class="st3" x1="11.3" y1="29.3" x2="11.3" y2="28.4"/>
		<line id="XMLID_321_" class="st3" x1="11.3" y1="27.1" x2="11.3" y2="26.3"/>
	</g>
	<g id="XMLID_330_" class="st1">
		<line id="XMLID_334_" class="st3" x1="47.1" y1="39.2" x2="48.1" y2="39.2"/>
		<line id="XMLID_333_" class="st3" x1="49.7" y1="39.2" x2="50.7" y2="39.2"/>
		<line id="XMLID_332_" class="st3" x1="48.9" y1="41" x2="48.9" y2="40"/>
		<line id="XMLID_331_" class="st3" x1="48.9" y1="38.4" x2="48.9" y2="37.4"/>
	</g>
	<g id="XMLID_315_" class="st1">
		<line id="XMLID_319_" class="st3" x1="40.8" y1="49.5" x2="41.4" y2="49.5"/>
		<line id="XMLID_318_" class="st3" x1="42.3" y1="49.5" x2="42.9" y2="49.5"/>
		<line id="XMLID_317_" class="st3" x1="41.9" y1="50.6" x2="41.9" y2="50"/>
		<line id="XMLID_316_" class="st3" x1="41.9" y1="49.1" x2="41.9" y2="48.5"/>
	</g>
	<g id="XMLID_309_" class="st1">
		<line id="XMLID_313_" class="st3" x1="12.3" y1="49.3" x2="13" y2="49.3"/>
		<line id="XMLID_312_" class="st3" x1="14.2" y1="49.3" x2="14.9" y2="49.3"/>
		<line id="XMLID_311_" class="st3" x1="13.6" y1="50.6" x2="13.6" y2="49.9"/>
		<line id="XMLID_310_" class="st3" x1="13.6" y1="48.7" x2="13.6" y2="48"/>
	</g>
	<g id="XMLID_304_" class="st1">
		<line id="XMLID_308_" class="st3" x1="11.3" y1="39.2" x2="11.9" y2="39.2"/>
		<line id="XMLID_307_" class="st3" x1="12.9" y1="39.2" x2="13.5" y2="39.2"/>
		<line id="XMLID_306_" class="st3" x1="12.4" y1="40.3" x2="12.4" y2="39.7"/>
		<line id="XMLID_305_" class="st3" x1="12.4" y1="38.7" x2="12.4" y2="38.1"/>
	</g>
	<g id="XMLID_294_" class="st1">
		<line id="XMLID_298_" class="st3" x1="44.9" y1="15.4" x2="45.9" y2="15.4"/>
		<line id="XMLID_297_" class="st3" x1="47.5" y1="15.4" x2="48.5" y2="15.4"/>
		<line id="XMLID_296_" class="st3" x1="46.7" y1="17.2" x2="46.7" y2="16.2"/>
		<line id="XMLID_295_" class="st3" x1="46.7" y1="14.6" x2="46.7" y2="13.6"/>
	</g>
	<g id="XMLID_289_" class="st1">
		<line id="XMLID_293_" class="st3" x1="50.7" y1="31.3" x2="51.7" y2="31.3"/>
		<line id="XMLID_292_" class="st3" x1="53.2" y1="31.3" x2="54.2" y2="31.3"/>
		<line id="XMLID_291_" class="st3" x1="52.4" y1="33.1" x2="52.4" y2="32.1"/>
		<line id="XMLID_290_" class="st3" x1="52.4" y1="30.5" x2="52.4" y2="29.6"/>
	</g>
	<path id="XMLID_252_" class="st13" d="M30.4,14.7c-9.2,0-16.7,7.5-16.7,16.7c0,9.2,7.5,16.7,16.7,16.7c9.2,0,16.7-7.5,16.7-16.7
		C47.1,22.2,39.7,14.7,30.4,14.7z M30.4,42.2c-6,0-10.8-4.8-10.8-10.8s4.8-10.8,10.8-10.8s10.8,4.8,10.8,10.8S36.4,42.2,30.4,42.2z"
		/>
	<path id="XMLID_272_" class="st8" d="M40,36.4c-1,2-2.7,3.6-4.6,4.6l4.3,4.3c1.8-1.2,3.4-2.8,4.6-4.6L40,36.4z"/>
	<path id="XMLID_273_" class="st8" d="M20.8,26.4c1-2,2.7-3.6,4.6-4.6l-4.3-4.3c-1.8,1.2-3.4,2.8-4.6,4.6L20.8,26.4z"/>
	<path id="XMLID_267_" class="st8" d="M39.7,17.5l-4.3,4.3c2,1,3.6,2.7,4.6,4.6l4.3-4.3C43.1,20.3,41.5,18.7,39.7,17.5z"/>
	<line id="XMLID_261_" class="st7" x1="39.7" y1="17.5" x2="35.4" y2="21.8"/>
	<line id="XMLID_259_" class="st7" x1="40" y1="26.4" x2="44.3" y2="22.1"/>
	<path id="XMLID_269_" class="st8" d="M20.8,36.4l-4.3,4.3c1.2,1.8,2.8,3.4,4.6,4.6l4.3-4.3C23.5,40,21.9,38.3,20.8,36.4z"/>
	<line id="XMLID_260_" class="st7" x1="35.4" y1="41" x2="39.7" y2="45.3"/>
	<line id="XMLID_238_" class="st7" x1="44.3" y1="40.7" x2="40" y2="36.4"/>
	<line id="XMLID_254_" class="st7" x1="16.5" y1="22.1" x2="20.8" y2="26.4"/>
	<line id="XMLID_237_" class="st7" x1="25.5" y1="21.8" x2="21.2" y2="17.5"/>
	<line id="XMLID_262_" class="st7" x1="21.2" y1="45.3" x2="25.5" y2="41"/>
	<line id="XMLID_232_" class="st7" x1="20.8" y1="36.4" x2="16.5" y2="40.7"/>
	<g id="XMLID_263_" class="st1">
		<circle id="XMLID_280_" class="st16" cx="30.4" cy="31.3" r="7.9"/>
		<path id="XMLID_279_" class="st16" d="M33.2,23.9c1.2,1.9,1.9,4.5,1.9,7.4c0,2.9-0.7,5.5-2,7.4"/>
		<path id="XMLID_278_" class="st16" d="M27.8,23.9c-1.2,1.9-1.9,4.5-1.9,7.4c0,2.9,0.7,5.5,2,7.4"/>
		<line id="XMLID_277_" class="st16" x1="30.4" y1="23.4" x2="30.4" y2="39.2"/>
		<line id="XMLID_276_" class="st16" x1="22.5" y1="31.3" x2="38.3" y2="31.3"/>
		<line id="XMLID_275_" class="st16" x1="23.7" y1="27.6" x2="37.4" y2="27.6"/>
		<line id="XMLID_274_" class="st16" x1="23.5" y1="35.1" x2="37.2" y2="35.1"/>
	</g>
</g>
<g id="XMLID_793_" class="st0">
	<rect id="XMLID_337_" x="12.6" y="28.6" class="st4" width="36.1" height="20.8"/>
	<rect id="XMLID_336_" x="14.1" y="26.5" class="st13" width="36.1" height="22.9"/>
	<rect id="XMLID_335_" x="15.6" y="22.9" class="st5" width="36.1" height="26.4"/>
	<rect id="XMLID_354_" x="15.6" y="22.9" class="st5" width="36.1" height="26.4"/>
	<g id="XMLID_339_" class="st1">
		<path id="XMLID_340_" class="st17" d="M25.3,24.7h1v5.9h-1.1l-3.4-4.3v4.3h-1v-5.9h1l3.4,4.4V24.7z"/>
		<path id="XMLID_342_" class="st17" d="M32.1,24.7v0.9H29v1.6h2.8v0.9H29v1.6h3.3v0.9H28v-5.9H32.1z"/>
		<path id="XMLID_344_" class="st17" d="M35.4,29l1.3-4.3h0.9l1.3,4.3l1.5-4.3h1.1l-2.1,5.9h-1l-1.2-4.1h-0.1l-1.2,4.1h-1l-2.1-5.9
			h1.1L35.4,29z"/>
		<path id="XMLID_346_" class="st17" d="M44.2,25.5c-0.3,0-0.5,0.1-0.7,0.2c-0.2,0.1-0.3,0.3-0.3,0.5c0,0.2,0.1,0.4,0.3,0.6
			c0.2,0.1,0.6,0.3,1.2,0.4c0.6,0.1,1.1,0.4,1.4,0.6c0.3,0.3,0.5,0.7,0.5,1.2c0,0.5-0.2,0.9-0.6,1.3c-0.4,0.3-0.9,0.5-1.5,0.5
			c-0.9,0-1.8-0.3-2.5-1l0.6-0.8c0.6,0.5,1.2,0.8,1.9,0.8c0.3,0,0.6-0.1,0.8-0.2c0.2-0.1,0.3-0.3,0.3-0.6c0-0.2-0.1-0.4-0.3-0.5
			c-0.2-0.1-0.5-0.2-0.9-0.3c-0.4-0.1-0.8-0.2-1-0.3c-0.2-0.1-0.4-0.2-0.6-0.3c-0.4-0.3-0.5-0.7-0.5-1.2s0.2-1,0.6-1.3
			c0.4-0.3,0.9-0.4,1.5-0.4c0.4,0,0.8,0.1,1.1,0.2c0.4,0.1,0.7,0.3,1,0.5l-0.5,0.8c-0.2-0.2-0.4-0.3-0.7-0.4
			C44.8,25.6,44.5,25.5,44.2,25.5z"/>
	</g>
	<rect id="XMLID_338_" x="20.9" y="32.7" class="st18" width="9" height="7.1"/>
	<line id="XMLID_349_" class="st19" x1="31.2" y1="33.1" x2="46.5" y2="33.1"/>
	<line id="XMLID_348_" class="st19" x1="31.2" y1="36" x2="46.5" y2="36"/>
	<line id="XMLID_350_" class="st19" x1="31.2" y1="38.9" x2="46.5" y2="38.9"/>
	<line id="XMLID_351_" class="st19" x1="20.9" y1="41.8" x2="46.5" y2="41.8"/>
	<line id="XMLID_352_" class="st19" x1="20.9" y1="44.7" x2="46.5" y2="44.7"/>
	<line id="XMLID_353_" class="st19" x1="20.9" y1="47.6" x2="46.5" y2="47.6"/>
	<polyline id="XMLID_358_" class="st20" points="43.4,15.3 45.8,14.6 46.5,17.2 	"/>
	<polyline id="XMLID_357_" class="st7" points="20.9,37.1 22.1,37.1 23.6,31.7 25.1,34.6 28.6,26.3 32.3,34.3 45.4,15.5 	"/>
	<rect id="XMLID_359_" x="28.3" y="41.8" class="st21" width="3" height="7.5"/>
	<rect id="XMLID_360_" x="32.6" y="38.1" class="st8" width="3" height="11.2"/>
	<rect id="XMLID_361_" x="36.8" y="31.9" class="st12" width="3" height="17.5"/>
	<line id="XMLID_355_" class="st7" x1="10.9" y1="49.4" x2="53.1" y2="49.4"/>
</g>
<g id="XMLID_792_" class="st0">
	<path id="XMLID_368_" class="st13" d="M51.6,26.7c0-0.4-0.3-0.8-0.8-0.8c-0.1,0-0.2,0-0.3,0.1c-0.1-0.3-0.4-0.5-0.8-0.6
		c0-0.1,0-0.2,0-0.2c0-0.7-0.6-1.3-1.3-1.3c-0.3,0-0.6,0.1-0.9,0.4C47.5,23,46.5,22,45.2,22c-1.1,0-2,0.7-2.3,1.8
		c-0.1,0-0.2,0-0.3,0c-0.8,0-1.4,0.5-1.6,1.2c-0.2-0.1-0.4-0.1-0.6-0.1c-0.8,0-1.5,0.7-1.5,1.5c0,0.3,0.1,0.5,0.2,0.7h12.3
		C51.5,27,51.6,26.9,51.6,26.7z"/>
	<g id="XMLID_489_" class="st1">
		<circle id="XMLID_488_" class="st22" cx="22" cy="19.6" r="6.6"/>
		<line id="XMLID_487_" class="st3" x1="21.8" y1="10" x2="21.8" y2="12.4"/>
		<line id="XMLID_486_" class="st3" x1="24.3" y1="10.3" x2="23.7" y2="12.6"/>
		<line id="XMLID_485_" class="st3" x1="26.6" y1="11.2" x2="25.4" y2="13.3"/>
		<line id="XMLID_484_" class="st3" x1="28.6" y1="12.7" x2="26.9" y2="14.4"/>
		<line id="XMLID_483_" class="st3" x1="30.2" y1="14.7" x2="28.1" y2="15.9"/>
		<line id="XMLID_482_" class="st3" x1="31.2" y1="16.9" x2="28.9" y2="17.6"/>
		<line id="XMLID_476_" class="st3" x1="15.4" y1="26.5" x2="17.1" y2="24.8"/>
		<line id="XMLID_475_" class="st3" x1="13.8" y1="24.6" x2="15.9" y2="23.4"/>
		<line id="XMLID_474_" class="st3" x1="12.8" y1="22.3" x2="15.1" y2="21.7"/>
		<line id="XMLID_473_" class="st3" x1="12.4" y1="19.8" x2="14.8" y2="19.8"/>
		<line id="XMLID_471_" class="st3" x1="12.7" y1="17.4" x2="15" y2="18"/>
		<line id="XMLID_430_" class="st3" x1="13.6" y1="15" x2="15.7" y2="16.2"/>
		<line id="XMLID_395_" class="st3" x1="15" y1="13" x2="16.7" y2="14.7"/>
		<line id="XMLID_392_" class="st3" x1="17" y1="11.4" x2="18.2" y2="13.5"/>
		<line id="XMLID_390_" class="st3" x1="19.2" y1="10.4" x2="19.9" y2="12.7"/>
		<g id="XMLID_478_">
			<path id="XMLID_479_" class="st23" d="M21.8,22.7v-0.5c-0.7-0.1-1.3-0.3-1.8-0.8l0.5-0.6c0.4,0.4,0.8,0.6,1.3,0.6v-1.4
				c-0.6-0.1-1-0.3-1.2-0.5c-0.3-0.2-0.4-0.5-0.4-1c0-0.4,0.1-0.8,0.4-1c0.3-0.3,0.7-0.4,1.2-0.4v-0.4h0.5v0.4
				c0.5,0,1.1,0.2,1.5,0.6l-0.5,0.7c-0.3-0.2-0.7-0.4-1.1-0.4v1.4h0c0.6,0.1,1,0.3,1.2,0.5c0.3,0.2,0.4,0.6,0.4,1
				c0,0.4-0.2,0.8-0.5,1.1c-0.3,0.3-0.7,0.4-1.2,0.4v0.5H21.8z M21.3,17.9c-0.1,0.1-0.2,0.2-0.2,0.4c0,0.2,0,0.3,0.1,0.4
				c0.1,0.1,0.3,0.2,0.6,0.3v-1.3C21.6,17.7,21.4,17.8,21.3,17.9z M22.9,21.1c0.1-0.1,0.2-0.3,0.2-0.4c0-0.2-0.1-0.3-0.2-0.4
				c-0.1-0.1-0.3-0.2-0.6-0.3v1.3C22.5,21.3,22.7,21.2,22.9,21.1z"/>
		</g>
	</g>
	<path id="XMLID_371_" class="st5" d="M45.3,29.8c0-1-0.8-1.8-1.8-1.8c-0.3,0-0.5,0.1-0.8,0.2c-0.3-0.7-1-1.2-1.8-1.3
		c0-0.2,0.1-0.3,0.1-0.5c0-1.7-1.3-3-3-3c-0.8,0-1.5,0.3-2,0.8c-0.2-2.9-2.6-5.1-5.5-5.1c-2.5,0-4.6,1.7-5.3,4
		c-0.2,0-0.5-0.1-0.8-0.1c-1.8,0-3.2,1.2-3.6,2.8c-0.4-0.2-0.8-0.3-1.3-0.3c-1.9,0-3.4,1.5-3.4,3.4c0,0.6,0.2,1.2,0.5,1.7H45
		C45.2,30.4,45.3,30.1,45.3,29.8z"/>
	<line id="XMLID_370_" class="st7" x1="24.1" y1="28.5" x2="24.1" y2="54"/>
	<line id="XMLID_369_" class="st7" x1="34.5" y1="28.5" x2="34.5" y2="54"/>
	<line id="XMLID_373_" class="st7" x1="24.1" y1="31.3" x2="34.8" y2="31.3"/>
	<line id="XMLID_477_" class="st7" x1="35.7" y1="30.7" x2="45.3" y2="30.7"/>
	<line id="XMLID_491_" class="st7" x1="16.7" y1="30.7" x2="22.3" y2="30.7"/>
	<line id="XMLID_372_" class="st7" x1="24.1" y1="36.4" x2="34.8" y2="36.4"/>
	<line id="XMLID_386_" class="st7" x1="24.1" y1="41.5" x2="34.8" y2="41.5"/>
	<line id="XMLID_387_" class="st7" x1="24.1" y1="46.6" x2="34.8" y2="46.6"/>
	<line id="XMLID_388_" class="st7" x1="24.1" y1="51.7" x2="34.8" y2="51.7"/>
	<path id="XMLID_495_" class="st4" d="M24,23.7c1.8,0,3.3,1.5,3.3,3.3c0,0.4-0.1,0.7-0.2,1.1c0.3-0.5,0.5-1.1,0.5-1.8
		c0-1.8-1.5-3.3-3.3-3.3h0c-1.4,0-2.6,0.9-3.1,2.2C21.9,24.3,22.9,23.7,24,23.7z"/>
	<path id="XMLID_492_" class="st4" d="M40.2,27.3c-0.8,0.6-1.9,0.4-2.5-0.4c-0.1-0.2-0.2-0.3-0.2-0.5c0,0.3,0.1,0.7,0.3,1
		c0.6,0.8,1.7,1,2.5,0.4l0,0c0.6-0.5,0.9-1.3,0.7-2C41,26.3,40.7,26.9,40.2,27.3z"/>
	<path id="XMLID_389_" class="st7" d="M41.1,26.3c0-1.7-1.3-3-3-3c-0.8,0-1.5,0.3-2,0.8c-0.2-2.9-2.6-5.1-5.5-5.1
		c-2.5,0-4.6,1.7-5.3,4"/>
</g>
<g id="XMLID_791_" class="st0">
	<g id="XMLID_855_" class="st1">
		<line id="XMLID_857_" class="st3" x1="38.8" y1="25.6" x2="40.8" y2="27.6"/>
		<line id="XMLID_856_" class="st3" x1="38.8" y1="27.6" x2="40.8" y2="25.6"/>
	</g>
	<g id="XMLID_720_" class="st1">
		<line id="XMLID_722_" class="st3" x1="15.4" y1="14.6" x2="17.4" y2="16.6"/>
		<line id="XMLID_721_" class="st3" x1="15.4" y1="16.6" x2="17.4" y2="14.6"/>
	</g>
	<g id="XMLID_711_" class="st1">
		<g id="XMLID_813_">
			<path id="XMLID_518_" class="st24" d="M35.4,20.3v7.6c5.6,1.5,9.7,6.6,9.7,12.7c0,7.3-5.9,13.2-13.2,13.2
				c-7.3,0-13.2-5.9-13.2-13.2c0-6.1,4.1-11.1,9.7-12.7v-7.6H35.4z"/>
		</g>
		<path id="XMLID_500_" class="st25" d="M35.4,27.9v-7.6h-1.8v7.6c5.6,1.5,9.7,6.6,9.7,12.7c0,7-5.4,12.6-12.2,13.1
			c0.3,0,0.6,0,0.9,0c7.3,0,13.2-5.9,13.2-13.2C45.1,34.6,41,29.5,35.4,27.9z"/>
		<rect id="XMLID_841_" x="28.5" y="20.3" class="st26" width="7" height="0.9"/>
		<g id="XMLID_837_">
			<path id="XMLID_834_" class="st25" d="M36.2,20.6h-8.3c-0.5,0-0.9-0.4-0.9-0.9c0-0.5,0.4-0.9,0.9-0.9h8.3c0.5,0,0.9,0.4,0.9,0.9
				C37.1,20.2,36.7,20.6,36.2,20.6z"/>
		</g>
	</g>
	<g id="XMLID_830_" class="st1">
		<line id="XMLID_833_" class="st3" x1="26.2" y1="15.6" x2="28.2" y2="17.6"/>
		<line id="XMLID_843_" class="st3" x1="26.2" y1="17.6" x2="28.2" y2="15.6"/>
	</g>
	<g id="XMLID_717_" class="st1">
		<line id="XMLID_719_" class="st3" x1="17.9" y1="27.6" x2="21" y2="30.7"/>
		<line id="XMLID_718_" class="st3" x1="17.9" y1="30.7" x2="21" y2="27.6"/>
	</g>
	<g id="XMLID_708_" class="st1">
		<line id="XMLID_710_" class="st3" x1="46.3" y1="19.6" x2="48.6" y2="21.9"/>
		<line id="XMLID_709_" class="st3" x1="46.3" y1="21.9" x2="48.6" y2="19.6"/>
	</g>
	<g id="XMLID_702_" class="st1">
		<line id="XMLID_707_" class="st3" x1="37.5" y1="10.8" x2="40.2" y2="13.5"/>
		<line id="XMLID_706_" class="st3" x1="37.5" y1="13.5" x2="40.2" y2="10.8"/>
	</g>
	<g id="XMLID_493_" class="st1">
		<circle id="XMLID_503_" class="st16" cx="32" cy="40.5" r="11"/>
		<path id="XMLID_502_" class="st16" d="M35.8,30.2c1.7,2.7,2.7,6.3,2.7,10.3c0,4-1,7.6-2.7,10.3"/>
		<path id="XMLID_501_" class="st16" d="M28.4,30.2c-1.7,2.7-2.7,6.3-2.7,10.3c0,4,1,7.6,2.7,10.3"/>
		<line id="XMLID_498_" class="st16" x1="32" y1="29.5" x2="32" y2="51.5"/>
		<line id="XMLID_497_" class="st16" x1="21" y1="40.5" x2="42.9" y2="40.5"/>
		<line id="XMLID_496_" class="st16" x1="22.7" y1="35.3" x2="41.6" y2="35.3"/>
		<line id="XMLID_494_" class="st16" x1="22.3" y1="45.7" x2="41.4" y2="45.7"/>
	</g>
	<circle id="XMLID_712_" class="st8" cx="37.8" cy="35.3" r="1.2"/>
	<circle id="XMLID_713_" class="st12" cx="32.1" cy="40.5" r="2.1"/>
	<circle id="XMLID_714_" class="st8" cx="32.1" cy="45.7" r="1.2"/>
	<circle id="XMLID_716_" class="st8" cx="37.8" cy="45.7" r="1.2"/>
	<circle id="XMLID_715_" class="st8" cx="25.7" cy="40.5" r="1.2"/>
	<path id="XMLID_724_" class="st7" d="M25.3,19.6c0,0.7-1.5,0.7-1.5,1.4c0,0.7,1.5,0.7,1.5,1.4c0,0.7-1.5,0.7-1.5,1.4
		s1.5,0.7,1.5,1.4"/>
	<path id="XMLID_723_" class="st7" d="M32.9,10.2c0,1-2,1-2,2c0,1,2,1,2,2c0,1-2,1-2,2c0,1,2,1,2,2"/>
	<path id="XMLID_725_" class="st7" d="M42.3,17c0,0.7-1.4,0.7-1.4,1.4c0,0.7,1.4,0.7,1.4,1.4c0,0.7-1.4,0.7-1.4,1.4s1.4,0.7,1.4,1.4
		"/>
</g>
<g id="XMLID_1501_" class="st0">
	<rect id="XMLID_726_" x="12.2" y="19.7" class="st13" width="39.6" height="24.5"/>
	<polygon id="XMLID_733_" class="st4" points="51.8,44.2 32,29.7 12.2,44.2 	"/>
	<polygon id="XMLID_730_" class="st5" points="51.8,19.7 32,34.2 12.2,19.7 	"/>
	<circle id="XMLID_728_" class="st8" cx="31.9" cy="32.8" r="5.8"/>
	<circle id="XMLID_746_" class="st27" cx="31.9" cy="32.8" r="3.8"/>
	<line id="XMLID_734_" class="st7" x1="16.8" y1="30" x2="25.7" y2="30"/>
	<line id="XMLID_732_" class="st7" x1="12.3" y1="44.3" x2="51.8" y2="44.3"/>
	<line id="XMLID_736_" class="st7" x1="12.2" y1="19.7" x2="39.6" y2="19.7"/>
	<line id="XMLID_745_" class="st7" x1="46.4" y1="19.7" x2="41.1" y2="19.7"/>
	<line id="XMLID_731_" class="st7" x1="20.5" y1="32.8" x2="25.7" y2="32.8"/>
	<line id="XMLID_735_" class="st7" x1="23.2" y1="35.6" x2="25.7" y2="35.6"/>
	<line id="XMLID_744_" class="st7" x1="47.3" y1="30" x2="38.4" y2="30"/>
	<line id="XMLID_743_" class="st7" x1="43.5" y1="32.8" x2="38.4" y2="32.8"/>
	<line id="XMLID_742_" class="st7" x1="40.9" y1="35.6" x2="38.4" y2="35.6"/>
	<g id="XMLID_737_" class="st1">
		<path id="XMLID_738_" class="st10" d="M31.6,35.3v-0.4c-0.5-0.1-1-0.3-1.4-0.6l0.4-0.5c0.3,0.3,0.7,0.5,1,0.5v-1.1
			c-0.4-0.1-0.8-0.2-1-0.4c-0.2-0.2-0.3-0.4-0.3-0.8s0.1-0.6,0.4-0.8c0.2-0.2,0.5-0.3,0.9-0.4v-0.3H32v0.3c0.4,0,0.8,0.2,1.2,0.4
			l-0.4,0.5c-0.3-0.2-0.5-0.3-0.8-0.3v1.1h0c0.4,0.1,0.8,0.2,1,0.4c0.2,0.2,0.3,0.4,0.3,0.8c0,0.3-0.1,0.6-0.4,0.8
			c-0.2,0.2-0.6,0.3-1,0.4v0.4H31.6z M31.2,31.5c-0.1,0.1-0.1,0.2-0.1,0.3s0,0.2,0.1,0.3c0.1,0.1,0.2,0.1,0.4,0.2v-1
			C31.5,31.4,31.3,31.4,31.2,31.5z M32.5,34.1c0.1-0.1,0.2-0.2,0.2-0.3c0-0.1,0-0.2-0.1-0.3c-0.1-0.1-0.2-0.2-0.5-0.2v1.1
			C32.2,34.2,32.3,34.2,32.5,34.1z"/>
	</g>
</g>
<g id="XMLID_789_" class="st0">
	<g id="XMLID_840_" class="st1">
		<circle id="XMLID_839_" class="st22" cx="44.5" cy="23" r="1.8"/>
		<g id="XMLID_761_">
			<g id="XMLID_230_">
				<path id="XMLID_239_" class="st9" d="M44.4,24.3V24c-0.2,0-0.5-0.1-0.7-0.3l0.3-0.3c0.2,0.1,0.3,0.2,0.4,0.3v-0.4
					c-0.2-0.1-0.4-0.1-0.4-0.2c-0.1-0.1-0.1-0.2-0.1-0.4c0-0.2,0.1-0.3,0.2-0.4c0.1-0.1,0.3-0.2,0.4-0.2v-0.1h0.3V22
					c0.2,0,0.4,0.1,0.6,0.2L45,22.6c-0.1-0.1-0.2-0.1-0.3-0.2v0.4c0.2,0.1,0.4,0.1,0.5,0.2c0.1,0.1,0.1,0.2,0.1,0.4
					c0,0.2-0.1,0.3-0.2,0.4C45,24,44.9,24,44.7,24.1v0.2H44.4z M44.4,22.4c-0.1,0-0.1,0.1-0.1,0.2c0,0.1,0,0.1,0.1,0.2V22.4z
					 M44.8,23.5c0,0,0-0.1,0-0.1c0,0-0.1-0.1-0.1-0.1v0.4C44.8,23.6,44.8,23.6,44.8,23.5z"/>
			</g>
		</g>
	</g>
	<g id="XMLID_859_" class="st1">
		<circle id="XMLID_896_" class="st22" cx="16.3" cy="23.3" r="2.4"/>
		<g id="XMLID_860_">
			<g id="XMLID_224_">
				<path id="XMLID_225_" class="st9" d="M16.1,24.9v-0.3c-0.3-0.1-0.6-0.2-0.9-0.4l0.4-0.4c0.2,0.2,0.4,0.3,0.5,0.3v-0.6
					c-0.3-0.1-0.5-0.2-0.6-0.3c-0.1-0.1-0.2-0.3-0.2-0.5c0-0.2,0.1-0.4,0.2-0.5c0.1-0.1,0.3-0.2,0.6-0.3v-0.2h0.4v0.2
					c0.3,0,0.5,0.1,0.8,0.3L17,22.7c-0.2-0.1-0.3-0.2-0.5-0.2V23c0.3,0.1,0.5,0.2,0.6,0.3c0.1,0.1,0.2,0.3,0.2,0.5s-0.1,0.4-0.2,0.6
					c-0.1,0.1-0.3,0.2-0.6,0.3v0.3H16.1z M16.1,22.4c-0.1,0-0.2,0.1-0.2,0.2c0,0.1,0.1,0.2,0.2,0.2V22.4z M16.7,23.8
					c0-0.1,0-0.1,0-0.1c0,0-0.1-0.1-0.2-0.1v0.5C16.7,24,16.7,24,16.7,23.8z"/>
			</g>
		</g>
	</g>
	<g id="XMLID_768_" class="st1">
		<circle id="XMLID_858_" class="st22" cx="49.4" cy="18.2" r="2.3"/>
		<g id="XMLID_827_">
			<g id="XMLID_218_">
				<path id="XMLID_219_" class="st9" d="M49.2,19.7v-0.3c-0.3,0-0.6-0.2-0.9-0.4l0.3-0.4c0.2,0.2,0.4,0.3,0.5,0.3v-0.6
					c-0.3-0.1-0.4-0.2-0.6-0.3c-0.1-0.1-0.2-0.3-0.2-0.5c0-0.2,0.1-0.4,0.2-0.5c0.1-0.1,0.3-0.2,0.5-0.2v-0.2h0.4v0.2
					c0.2,0,0.5,0.1,0.7,0.3l-0.3,0.4c-0.2-0.1-0.3-0.2-0.4-0.2v0.5c0.3,0.1,0.5,0.2,0.6,0.3c0.1,0.1,0.2,0.3,0.2,0.5
					c0,0.2-0.1,0.4-0.2,0.5c-0.1,0.1-0.3,0.2-0.6,0.2v0.3H49.2z M49.2,17.3c-0.1,0-0.2,0.1-0.2,0.2c0,0.1,0.1,0.2,0.2,0.2V17.3z
					 M49.8,18.7c0-0.1,0-0.1,0-0.1c0,0-0.1-0.1-0.1-0.1v0.5C49.7,18.9,49.8,18.8,49.8,18.7z"/>
			</g>
		</g>
	</g>
	<g id="XMLID_825_" class="st1">
		<circle id="XMLID_849_" class="st22" cx="40.7" cy="20.1" r="1"/>
		<g id="XMLID_826_">
			<g id="XMLID_179_">
				<path id="XMLID_180_" class="st9" d="M40.7,20.8v-0.1c-0.1,0-0.3-0.1-0.4-0.2l0.2-0.2c0.1,0.1,0.2,0.1,0.2,0.1v-0.2
					c-0.1,0-0.2-0.1-0.3-0.1c-0.1-0.1-0.1-0.1-0.1-0.2s0-0.2,0.1-0.2c0.1-0.1,0.1-0.1,0.2-0.1v-0.1h0.2v0.1c0.1,0,0.2,0.1,0.3,0.1
					L41,19.9c-0.1,0-0.1-0.1-0.2-0.1V20c0.1,0,0.2,0.1,0.3,0.1c0.1,0.1,0.1,0.1,0.1,0.2c0,0.1,0,0.2-0.1,0.2s-0.1,0.1-0.3,0.1v0.1
					H40.7z M40.7,19.8C40.6,19.8,40.6,19.8,40.7,19.8c-0.1,0.1,0,0.2,0,0.2V19.8z M40.9,20.4C40.9,20.3,40.9,20.3,40.9,20.4
					c0-0.1-0.1-0.1-0.1-0.1v0.2C40.9,20.5,40.9,20.4,40.9,20.4z"/>
			</g>
		</g>
	</g>
	<g id="XMLID_766_" class="st1">
		<circle id="XMLID_869_" class="st22" cx="23.2" cy="21.6" r="0.8"/>
		<g id="XMLID_850_">
			<g id="XMLID_173_">
				<path id="XMLID_174_" class="st9" d="M23.1,22.1L23.1,22.1c-0.1-0.1-0.2-0.2-0.3-0.2l0.1-0.1c0.1,0.1,0.1,0.1,0.2,0.1v-0.2
					c-0.1,0-0.2-0.1-0.2-0.1c0,0-0.1-0.1-0.1-0.2c0-0.1,0-0.1,0.1-0.2c0,0,0.1-0.1,0.2-0.1v-0.1h0.1v0.1c0.1,0,0.2,0,0.2,0.1
					l-0.1,0.1c-0.1,0-0.1-0.1-0.1-0.1v0.2c0.1,0,0.2,0.1,0.2,0.1c0,0,0.1,0.1,0.1,0.2c0,0.1,0,0.1-0.1,0.2c0,0-0.1,0.1-0.2,0.1v0.1
					H23.1z M23.1,21.3C23.1,21.3,23.1,21.3,23.1,21.3c-0.1,0.1,0,0.1,0,0.1V21.3z M23.3,21.7C23.3,21.7,23.3,21.7,23.3,21.7
					C23.3,21.7,23.3,21.7,23.3,21.7L23.3,21.7C23.3,21.8,23.3,21.8,23.3,21.7z"/>
			</g>
		</g>
	</g>
	<g id="XMLID_870_" class="st1">
		<circle id="XMLID_882_" class="st22" cx="19.6" cy="17.7" r="1.4"/>
		<g id="XMLID_871_">
			<g id="XMLID_167_">
				<path id="XMLID_168_" class="st9" d="M19.5,18.7v-0.2c-0.2,0-0.4-0.1-0.5-0.3l0.2-0.3c0.1,0.1,0.2,0.2,0.3,0.2v-0.3
					c-0.2,0-0.3-0.1-0.4-0.2c-0.1-0.1-0.1-0.2-0.1-0.3c0-0.1,0-0.2,0.1-0.3c0.1-0.1,0.2-0.1,0.3-0.2v-0.1h0.2v0.1
					c0.2,0,0.3,0.1,0.5,0.2L20,17.4c-0.1-0.1-0.2-0.1-0.3-0.1v0.3c0.2,0,0.3,0.1,0.4,0.2c0.1,0.1,0.1,0.2,0.1,0.3s0,0.2-0.1,0.3
					c-0.1,0.1-0.2,0.1-0.4,0.2v0.2H19.5z M19.5,17.2c-0.1,0-0.1,0.1-0.1,0.1c0,0.1,0,0.1,0.1,0.1V17.2z M19.9,18.1
					C19.9,18,19.9,18,19.9,18.1c0-0.1-0.1-0.1-0.1-0.1v0.3C19.8,18.2,19.9,18.1,19.9,18.1z"/>
			</g>
		</g>
	</g>
	<g id="XMLID_775_" class="st1">
		<line id="XMLID_779_" class="st3" x1="49.4" y1="24" x2="50.4" y2="24"/>
		<line id="XMLID_778_" class="st3" x1="51.9" y1="24" x2="52.9" y2="24"/>
		<line id="XMLID_777_" class="st3" x1="51.2" y1="25.8" x2="51.2" y2="24.8"/>
		<line id="XMLID_776_" class="st3" x1="51.2" y1="23.2" x2="51.2" y2="22.3"/>
	</g>
	<g id="XMLID_828_" class="st1">
		<line id="XMLID_844_" class="st3" x1="11.1" y1="17.1" x2="12.1" y2="17.1"/>
		<line id="XMLID_842_" class="st3" x1="13.6" y1="17.1" x2="14.6" y2="17.1"/>
		<line id="XMLID_831_" class="st3" x1="12.8" y1="18.8" x2="12.8" y2="17.9"/>
		<line id="XMLID_829_" class="st3" x1="12.8" y1="16.3" x2="12.8" y2="15.3"/>
	</g>
	<polygon id="XMLID_747_" class="st5" points="39.4,50.9 26.2,51 28.5,24.5 36.9,24.5 	"/>
	<polygon id="XMLID_760_" class="st12" points="28.5,24.9 28,30.3 35.2,24.5 29.1,24.5 	"/>
	<polygon id="XMLID_762_" class="st12" points="27.5,36.2 26.9,42.9 37.7,33.2 37.2,28 	"/>
	<polygon id="XMLID_764_" class="st12" points="38.9,45.6 38.3,39 26.2,50.5 26.2,51 33.7,50.9 	"/>
	<rect id="XMLID_751_" x="28.8" y="16.2" class="st4" width="2.6" height="6.5"/>
	<rect id="XMLID_752_" x="31.5" y="16.2" class="st5" width="2.6" height="6.5"/>
	<rect id="XMLID_754_" x="34.1" y="16.2" class="st13" width="2.6" height="6.5"/>
	<rect id="XMLID_759_" x="27.1" y="23" class="st5" width="11.2" height="1.9"/>
	<rect id="XMLID_758_" x="27.1" y="23" class="st7" width="11.2" height="1.9"/>
	<line id="XMLID_755_" class="st15" x1="16.4" y1="27.8" x2="25.1" y2="24.7"/>
	<line id="XMLID_763_" class="st15" x1="25.1" y1="16.9" x2="15.8" y2="13.6"/>
	<line id="XMLID_767_" class="st15" x1="49.6" y1="27.8" x2="40.9" y2="24.7"/>
	<line id="XMLID_765_" class="st15" x1="40.9" y1="16.9" x2="50.2" y2="13.6"/>
	<line id="XMLID_756_" class="st7" x1="20.5" y1="51" x2="44.5" y2="50.9"/>
	<line id="XMLID_748_" class="st7" x1="14.2" y1="53.3" x2="35.2" y2="53.3"/>
	<line id="XMLID_749_" class="st7" x1="52.6" y1="53.3" x2="37.2" y2="53.3"/>
	<circle id="XMLID_750_" class="st8" cx="32.8" cy="19.5" r="2.1"/>
	<circle id="XMLID_757_" class="st28" cx="32.8" cy="19.5" r="1.3"/>
	<path id="XMLID_770_" class="st4" d="M27,16.3h5.6v-5.6C29.5,10.7,27,13.2,27,16.3z"/>
	<path id="XMLID_771_" class="st13" d="M32.6,10.7v5.6h5.6C38.2,13.2,35.7,10.7,32.6,10.7z"/>
	<line id="XMLID_753_" class="st7" x1="26.2" y1="16.3" x2="38.9" y2="16.3"/>
</g>
<g id="XMLID_795_" class="st0">
	<path id="XMLID_774_" class="st6" d="M39.8,32l-1.4,0c-0.2-0.7-0.5-1.4-0.9-2.1l1-1c0.4-0.4,0.4-0.9,0-1.3l-0.8-0.8
		c-0.4-0.4-0.9-0.4-1.3,0l-1,1c-0.6-0.4-1.3-0.7-2-0.9v-1.4c0-0.5-0.4-0.9-0.9-0.9h-1.1c-0.5,0-0.9,0.4-0.9,0.9v1.4
		c-0.7,0.2-1.4,0.5-2,0.8l-1-1c-0.4-0.4-0.9-0.4-1.3,0l-0.8,0.7c-0.4,0.4-0.4,0.9,0,1.3l1,1c-0.4,0.6-0.7,1.3-0.9,2l-1.4,0
		c-0.5,0-0.9,0.4-0.9,0.9l0,1.1c0,0.5,0.4,0.9,0.9,0.9l1.4,0c0.2,0.7,0.5,1.4,0.8,2.1l-1,1c-0.4,0.4-0.4,0.9,0,1.3l0.7,0.8
		c0.4,0.4,0.9,0.4,1.3,0l1-1c0.6,0.4,1.3,0.7,2.1,0.9l0,1.4c0,0.5,0.4,0.9,0.9,0.9l1.1,0c0.5,0,0.9-0.4,0.9-0.9l0-1.4
		c0.7-0.2,1.4-0.5,2.1-0.8l1,1c0.4,0.4,0.9,0.4,1.3,0l0.8-0.8c0.4-0.4,0.4-0.9,0-1.3l-1-1c0.4-0.6,0.7-1.3,0.9-2.1l1.4,0
		c0.5,0,0.9-0.4,0.9-0.9v-1.1C40.7,32.4,40.3,32,39.8,32z M32,36.4c-1.6,0-2.9-1.3-2.9-2.9c0-1.6,1.3-2.9,2.9-2.9
		c1.6,0,2.9,1.3,2.9,2.9C34.9,35.1,33.6,36.4,32,36.4z"/>
	<path id="XMLID_769_" class="st7" d="M39.8,32l-1.4,0c-0.2-0.7-0.5-1.4-0.9-2.1l1-1c0.4-0.4,0.4-0.9,0-1.3l-0.8-0.8
		c-0.4-0.4-0.9-0.4-1.3,0l-1,1c-0.6-0.4-1.3-0.7-2-0.9v-1.4c0-0.5-0.4-0.9-0.9-0.9h-1.1c-0.5,0-0.9,0.4-0.9,0.9v1.4
		c-0.7,0.2-1.4,0.5-2,0.8l-1-1c-0.4-0.4-0.9-0.4-1.3,0l-0.8,0.7c-0.4,0.4-0.4,0.9,0,1.3l1,1c-0.4,0.6-0.7,1.3-0.9,2l-1.4,0
		c-0.5,0-0.9,0.4-0.9,0.9l0,1.1c0,0.5,0.4,0.9,0.9,0.9l1.4,0c0.2,0.7,0.5,1.4,0.8,2.1l-1,1c-0.4,0.4-0.4,0.9,0,1.3l0.7,0.8
		c0.4,0.4,0.9,0.4,1.3,0l1-1c0.6,0.4,1.3,0.7,2.1,0.9l0,1.4c0,0.5,0.4,0.9,0.9,0.9l1.1,0c0.5,0,0.9-0.4,0.9-0.9l0-1.4
		c0.7-0.2,1.4-0.5,2.1-0.8l1,1c0.4,0.4,0.9,0.4,1.3,0l0.8-0.8c0.4-0.4,0.4-0.9,0-1.3l-1-1c0.4-0.6,0.7-1.3,0.9-2.1l1.4,0
		c0.5,0,0.9-0.4,0.9-0.9v-1.1C40.7,32.4,40.3,32,39.8,32z M32,36.4c-1.6,0-2.9-1.3-2.9-2.9c0-1.6,1.3-2.9,2.9-2.9
		c1.6,0,2.9,1.3,2.9,2.9C34.9,35.1,33.6,36.4,32,36.4z"/>
	<g id="XMLID_780_" class="st1">
		<path id="XMLID_785_" class="st11" d="M32,47.7c-3.9,0-7.5-1.5-10.2-4.2c-2.7-2.7-4.2-6.4-4.2-10.2h3.4c0,3,1.2,5.7,3.2,7.8
			c2.1,2.1,4.9,3.2,7.8,3.2c3,0,5.7-1.2,7.8-3.2l2.4,2.4C39.5,46.2,35.9,47.7,32,47.7z"/>
	</g>
	<g id="XMLID_782_" class="st1">
		<path id="XMLID_784_" class="st25" d="M43.2,42.5l-2.6-2.2c1.6-2,2.5-4.5,2.5-7c0-3-1.2-5.7-3.2-7.8l2.4-2.4
			c2.7,2.7,4.2,6.4,4.2,10.2C46.5,36.6,45.3,39.9,43.2,42.5z"/>
	</g>
	<g id="XMLID_781_" class="st1">
		<path id="XMLID_783_" class="st22" d="M21,32l-3.4-0.4c0.4-3.2,1.8-6.3,4.1-8.6c2.7-2.7,6.4-4.2,10.2-4.2c3.4,0,6.6,1.2,9.2,3.3
			l-2.2,2.6c-2-1.6-4.5-2.5-7.1-2.5c-3,0-5.7,1.2-7.8,3.2C22.4,27.2,21.3,29.5,21,32z"/>
	</g>
	<path id="XMLID_790_" class="st7" d="M44,45.5c-1.5,1.5-3.4,2.8-5.4,3.6c-2,0.9-4.3,1.3-6.6,1.3c-2.3,0-4.6-0.5-6.6-1.3
		c-2-0.9-3.9-2.1-5.4-3.6c-1.5-1.5-2.8-3.4-3.6-5.4c-0.9-2-1.3-4.3-1.3-6.6"/>
	<path id="XMLID_788_" class="st15" d="M12.1,33.5c0-2.7,0.6-5.4,1.6-7.7s2.5-4.5,4.3-6.3c1.8-1.8,3.9-3.3,6.3-4.3
		c2.4-1,5-1.6,7.7-1.6c2.7,0,5.4,0.6,7.7,1.6c2.4,1,4.5,2.5,6.3,4.3c1.8,1.8,3.3,3.9,4.3,6.3s1.6,5,1.6,7.7c0,2.7-0.6,5.4-1.6,7.7
		c-1,2.4-2.1,4.1-3.9,5.9"/>
</g>
<g id="XMLID_814_" class="st0">
	<line id="XMLID_805_" class="st7" x1="14" y1="24.1" x2="27.1" y2="24.1"/>
	<polygon id="XMLID_802_" class="st8" points="24.7,26.1 32.6,26.1 32.6,21.3 24.7,21.3 25.7,23.7 	"/>
	<line id="XMLID_799_" class="st7" x1="32.6" y1="20.8" x2="32.6" y2="29.8"/>
	<polygon id="XMLID_797_" class="st12" points="53.4,45.3 43.6,32.6 33.2,45.3 	"/>
	<polygon id="XMLID_798_" class="st12" points="31.3,45.3 21.5,32.6 11.1,45.3 	"/>
	<polygon id="XMLID_796_" class="st6" points="45.3,44.8 32.6,28.5 19.2,44.8 	"/>
	<line id="XMLID_800_" class="st7" x1="9.9" y1="45.3" x2="54.1" y2="45.3"/>
	<line id="XMLID_803_" class="st7" x1="9.9" y1="21.8" x2="18.4" y2="21.8"/>
	<line id="XMLID_806_" class="st7" x1="32.8" y1="19.1" x2="43.3" y2="19.1"/>
	<line id="XMLID_809_" class="st7" x1="15.3" y1="18.7" x2="25.8" y2="18.7"/>
	<line id="XMLID_808_" class="st7" x1="38.1" y1="21.8" x2="48.5" y2="21.8"/>
	<line id="XMLID_810_" class="st7" x1="35.4" y1="28.1" x2="40.6" y2="28.1"/>
	<line id="XMLID_812_" class="st7" x1="16.7" y1="30.3" x2="27.3" y2="30.3"/>
	<line id="XMLID_811_" class="st7" x1="49" y1="28.1" x2="41.8" y2="28.1"/>
	<line id="XMLID_807_" class="st7" x1="51.8" y1="19.1" x2="44" y2="19.1"/>
	<line id="XMLID_804_" class="st7" x1="21.2" y1="21.8" x2="19.2" y2="21.8"/>
	<polyline id="XMLID_801_" class="st7" points="18.3,45.3 32.6,28.5 46.2,45.3 	"/>
</g>
<g id="XMLID_911_" class="st0">
	<g id="XMLID_407_" class="st1">
		<path id="XMLID_414_" class="st10" d="M43.9,48.4h-28v-3h28l3.7,1.4c0.1,0,0.1,0.1,0,0.2L43.9,48.4z"/>
		<rect id="XMLID_413_" x="15.9" y="45.4" class="st22" width="28" height="3"/>
		<rect id="XMLID_412_" x="15.9" y="45.4" class="st29" width="28" height="1.5"/>
		<rect id="XMLID_411_" x="15.8" y="45.4" class="st10" width="3.5" height="3.1"/>
		<path id="XMLID_410_" class="st3" d="M43.9,48.4h-28v-3h28l3.7,1.4c0.1,0,0.1,0.1,0,0.2L43.9,48.4z"/>
		<line id="XMLID_409_" class="st3" x1="19.3" y1="45.4" x2="19.3" y2="48"/>
		<line id="XMLID_408_" class="st3" x1="43.9" y1="45.6" x2="43.9" y2="48.2"/>
	</g>
	<rect id="XMLID_815_" x="12.8" y="19.3" class="st30" width="37.9" height="24.1"/>
	<rect id="XMLID_910_" x="12.8" y="19.8" class="st31" width="37.9" height="9.4"/>
	<rect id="XMLID_816_" x="12.8" y="19.3" class="st32" width="37.9" height="9.4"/>
	<rect id="XMLID_817_" x="30.2" y="26.5" class="st8" width="3" height="4.9"/>
	<polyline id="XMLID_818_" class="st7" points="12.8,26.1 12.8,19.3 50.7,19.3 50.7,26.1 	"/>
	<path id="XMLID_820_" class="st7" d="M26.1,19.6v-2.2c0-1,0.9-1.9,1.9-1.9h7.5c1,0,1.9,0.9,1.9,1.9v2.2"/>
	<rect id="XMLID_821_" x="12.8" y="27.9" class="st6" width="11.4" height="15.3"/>
	<rect id="XMLID_822_" x="12.8" y="27.9" class="st12" width="11.4" height="3.8"/>
	<rect id="XMLID_819_" x="12.8" y="27.9" class="st7" width="11.4" height="15.3"/>
	<circle id="XMLID_823_" class="st32" cx="15.8" cy="34.9" r="2"/>
	<circle id="XMLID_824_" class="st32" cx="21.1" cy="34.9" r="2"/>
	<circle id="XMLID_862_" class="st32" cx="15.9" cy="39.5" r="2"/>
	<circle id="XMLID_861_" class="st32" cx="21.2" cy="39.5" r="2"/>
	<path id="XMLID_883_" class="st33" d="M15.7,35.8v-0.7H15v-0.4h0.7V34H16v0.7h0.7v0.4H16v0.7H15.7z"/>
	<path id="XMLID_895_" class="st33" d="M16.4,40.2l-0.5-0.5l-0.5,0.5L15.1,40l0.5-0.5L15.1,39l0.2-0.2l0.5,0.5l0.5-0.5l0.3,0.3
		l-0.5,0.5l0.5,0.5L16.4,40.2z"/>
	<path id="XMLID_885_" class="st33" d="M20.6,35.1v-0.4h1.3v0.4H20.6z"/>
	<path id="XMLID_863_" class="st33" d="M20.6,39.7v-0.4h1.3v0.4H20.6z"/>
	<circle id="XMLID_892_" class="st33" cx="21.2" cy="38.7" r="0.3"/>
	<circle id="XMLID_893_" class="st33" cx="21.2" cy="40.2" r="0.3"/>
	<rect id="XMLID_922_" x="36.5" y="21.8" class="st5" width="14.7" height="21.6"/>
	<line id="XMLID_921_" class="st7" x1="44.2" y1="25" x2="49.6" y2="25"/>
	<line id="XMLID_920_" class="st7" x1="44.2" y1="27.1" x2="49.6" y2="27.1"/>
	<line id="XMLID_919_" class="st7" x1="44.2" y1="29.3" x2="49.6" y2="29.3"/>
	<line id="XMLID_918_" class="st7" x1="38.7" y1="31.5" x2="49.6" y2="31.5"/>
	<line id="XMLID_917_" class="st7" x1="38.7" y1="33.7" x2="49.6" y2="33.7"/>
	<line id="XMLID_916_" class="st7" x1="38.7" y1="35.8" x2="49.6" y2="35.8"/>
	<line id="XMLID_915_" class="st7" x1="38.7" y1="38" x2="49.6" y2="38"/>
	<line id="XMLID_914_" class="st7" x1="38.7" y1="40.2" x2="43.9" y2="40.2"/>
	<rect id="XMLID_894_" x="38.5" y="24.4" class="st12" width="4.9" height="5.5"/>
</g>
<g id="XMLID_1503_" class="st0">
	<polygon id="XMLID_962_" class="st5" points="32.6,18.6 15.5,27.9 49.7,27.9 	"/>
	<rect id="XMLID_913_" x="15.5" y="27.9" class="st12" width="34.3" height="15.4"/>
	<rect id="XMLID_1302_" x="15.5" y="27.9" class="st34" width="34.3" height="1"/>
	<circle id="XMLID_923_" class="st35" cx="32.5" cy="35.6" r="5.4"/>
	<line id="XMLID_925_" class="st7" x1="19.1" y1="35.6" x2="24.9" y2="35.6"/>
	<line id="XMLID_924_" class="st7" x1="40" y1="35.6" x2="45.8" y2="35.6"/>
	<g id="XMLID_927_" class="st1">
		<path id="XMLID_928_" class="st9" d="M32.3,38.7v-0.5c-0.7-0.1-1.3-0.3-1.8-0.8l0.5-0.7c0.4,0.4,0.9,0.6,1.3,0.7v-1.5
			c-0.6-0.1-1-0.3-1.2-0.5c-0.3-0.2-0.4-0.5-0.4-1c0-0.4,0.2-0.8,0.5-1.1c0.3-0.3,0.7-0.4,1.2-0.5v-0.4h0.5v0.4
			c0.6,0,1.1,0.2,1.6,0.6l-0.5,0.7c-0.3-0.2-0.7-0.4-1.1-0.4v1.4h0c0.6,0.1,1,0.3,1.3,0.5c0.3,0.2,0.4,0.6,0.4,1s-0.2,0.8-0.5,1.1
			c-0.3,0.3-0.7,0.4-1.2,0.5v0.5H32.3z M31.8,33.9c-0.1,0.1-0.2,0.3-0.2,0.4c0,0.2,0.1,0.3,0.2,0.4c0.1,0.1,0.3,0.2,0.6,0.3v-1.3
			C32.1,33.7,31.9,33.7,31.8,33.9z M33.3,37.1c0.1-0.1,0.2-0.3,0.2-0.4c0-0.2-0.1-0.3-0.2-0.4c-0.1-0.1-0.3-0.2-0.6-0.3v1.4
			C33,37.3,33.2,37.3,33.3,37.1z"/>
	</g>
	<line id="XMLID_940_" class="st7" x1="13.1" y1="43.4" x2="51.8" y2="43.4"/>
	<line id="XMLID_934_" class="st7" x1="24.9" y1="45.4" x2="54.6" y2="45.4"/>
	<line id="XMLID_941_" class="st7" x1="9.4" y1="45.4" x2="23.5" y2="45.4"/>
	<line id="XMLID_954_" class="st7" x1="29.6" y1="22.7" x2="35.8" y2="22.7"/>
	<line id="XMLID_955_" class="st7" x1="29.6" y1="24.5" x2="35.8" y2="24.5"/>
	<line id="XMLID_956_" class="st7" x1="29.6" y1="26.2" x2="35.8" y2="26.2"/>
	<polyline id="XMLID_926_" class="st7" points="12.4,28.9 32.6,18.6 52.6,28.9 	"/>
</g>
<g id="XMLID_994_" class="st0">
	<line id="XMLID_967_" class="st7" x1="32" y1="23.3" x2="32" y2="44.1"/>
	<polygon id="XMLID_965_" class="st5" points="39.9,53.3 24.1,53.3 21.7,41.1 42.3,41.1 	"/>
	<polygon id="XMLID_969_" class="st4" points="22.3,44.1 41.7,44.1 42.3,41.1 21.7,41.1 	"/>
	<polygon id="XMLID_964_" class="st7" points="39.9,53.3 24.1,53.3 21.7,41.1 42.3,41.1 	"/>
	<rect id="XMLID_953_" x="20.4" y="39.4" class="st5" width="23.1" height="3.6"/>
	<rect id="XMLID_963_" x="20.4" y="39.4" class="st7" width="23.1" height="3.6"/>
	<path id="XMLID_972_" class="st12" d="M40.1,28.9c0,0,0.4,4-1.8,6.2c-1.3,1.3-3.1,1.7-4.4,1.8c-1,0.1-1.8-0.8-1.8-1.8
		c0.1-1.3,0.5-3.2,1.8-4.4C36.1,28.5,40.1,28.9,40.1,28.9z"/>
	<path id="XMLID_966_" class="st7" d="M40.1,28.9c0,0,0.4,4-1.8,6.2c-1.3,1.3-3.1,1.7-4.4,1.8c-1,0.1-1.8-0.8-1.8-1.8
		c0.1-1.3,0.5-3.2,1.8-4.4C36.1,28.5,40.1,28.9,40.1,28.9z"/>
	<line id="XMLID_970_" class="st7" x1="32.6" y1="36.4" x2="40.2" y2="28.8"/>
	<line id="XMLID_971_" class="st7" x1="36.7" y1="32.4" x2="36.7" y2="29.2"/>
	<line id="XMLID_968_" class="st7" x1="33.9" y1="35.1" x2="33.9" y2="30.7"/>
	<line id="XMLID_973_" class="st7" x1="39.3" y1="33.7" x2="35.3" y2="33.7"/>
	<path id="XMLID_981_" class="st12" d="M23.7,28.9c0,0-0.4,4,1.8,6.2c1.3,1.3,3.1,1.7,4.4,1.8c1,0.1,1.8-0.8,1.8-1.8
		c-0.1-1.3-0.5-3.2-1.8-4.4C27.7,28.5,23.7,28.9,23.7,28.9z"/>
	<path id="XMLID_979_" class="st7" d="M23.7,28.9c0,0-0.4,4,1.8,6.2c1.3,1.3,3.1,1.7,4.4,1.8c1,0.1,1.8-0.8,1.8-1.8
		c-0.1-1.3-0.5-3.2-1.8-4.4C27.7,28.5,23.7,28.9,23.7,28.9z"/>
	<line id="XMLID_978_" class="st7" x1="31.2" y1="36.4" x2="23.6" y2="28.8"/>
	<line id="XMLID_977_" class="st7" x1="27.2" y1="32.4" x2="27.2" y2="29.2"/>
	<line id="XMLID_976_" class="st7" x1="29.9" y1="35.1" x2="29.9" y2="30.7"/>
	<line id="XMLID_975_" class="st7" x1="24.5" y1="33.7" x2="28.5" y2="33.7"/>
	<circle id="XMLID_974_" class="st8" cx="32" cy="20.8" r="7.3"/>
	<g id="XMLID_983_" class="st1">
		<path id="XMLID_984_" class="st9" d="M31.9,24.5v-0.7c-0.8-0.1-1.6-0.4-2.2-1l0.7-0.8c0.5,0.4,1,0.7,1.6,0.8v-1.8
			c-0.7-0.2-1.2-0.4-1.5-0.6c-0.3-0.3-0.5-0.7-0.5-1.2c0-0.5,0.2-1,0.5-1.3c0.4-0.3,0.8-0.5,1.4-0.5V17h0.6v0.5
			c0.7,0,1.3,0.3,1.9,0.7L33.8,19c-0.4-0.3-0.8-0.5-1.3-0.5v1.7h0c0.7,0.2,1.2,0.4,1.5,0.7c0.3,0.3,0.5,0.7,0.5,1.2s-0.2,1-0.6,1.3
			c-0.4,0.3-0.9,0.5-1.5,0.5v0.7H31.9z M31.3,18.7C31.1,18.8,31,19,31,19.2c0,0.2,0.1,0.4,0.2,0.5c0.1,0.1,0.4,0.2,0.7,0.3v-1.6
			C31.6,18.4,31.4,18.5,31.3,18.7z M33.2,22.6c0.2-0.1,0.3-0.3,0.3-0.5c0-0.2-0.1-0.4-0.2-0.5c-0.1-0.1-0.4-0.2-0.7-0.3v1.6
			C32.8,22.9,33,22.8,33.2,22.6z"/>
	</g>
	<line id="XMLID_988_" class="st7" x1="32" y1="10.7" x2="32" y2="12.7"/>
	<line id="XMLID_982_" class="st7" x1="35.5" y1="11.3" x2="34.8" y2="13.2"/>
	<line id="XMLID_989_" class="st7" x1="38.5" y1="13" x2="37.2" y2="14.6"/>
	<line id="XMLID_990_" class="st7" x1="40.8" y1="15.7" x2="39" y2="16.7"/>
	<line id="XMLID_991_" class="st7" x1="42" y1="19" x2="39.9" y2="19.4"/>
	<line id="XMLID_992_" class="st7" x1="41.9" y1="22.6" x2="39.9" y2="22.2"/>
	<line id="XMLID_993_" class="st7" x1="40.7" y1="25.9" x2="39" y2="24.8"/>
	<line id="XMLID_999_" class="st7" x1="23.2" y1="25.7" x2="25" y2="24.7"/>
	<line id="XMLID_1000_" class="st7" x1="22" y1="22.4" x2="24" y2="22.1"/>
	<line id="XMLID_1001_" class="st7" x1="22.1" y1="18.9" x2="24.1" y2="19.3"/>
	<line id="XMLID_1002_" class="st7" x1="23.3" y1="15.6" x2="25.1" y2="16.6"/>
	<line id="XMLID_1003_" class="st7" x1="25.6" y1="12.9" x2="26.9" y2="14.5"/>
	<line id="XMLID_1004_" class="st7" x1="28.7" y1="11.2" x2="29.4" y2="13.1"/>
</g>
<g id="XMLID_1006_" class="st0">
	<path id="XMLID_1018_" class="st13" d="M23.6,34.8l5.9-2.2v-8.2l-3.4,2.1c-1.6,1-2.5,2.7-2.5,4.5V34.8z"/>
	<path id="XMLID_1015_" class="st4" d="M27.1,27.2c0-0.5,0-0.9,0.1-1.4l2.1-1.3v8.2l-2.3,0.8V27.2z"/>
	<path id="XMLID_1031_" class="st13" d="M40.4,34.8l-5.9-2.2v-8.2l3.4,2.1c1.6,1,2.5,2.7,2.5,4.5V34.8z"/>
	<path id="XMLID_1005_" class="st4" d="M36.9,27.2c0-0.5,0-0.9-0.1-1.4l-2.1-1.3v8.2l2.3,0.8V27.2z"/>
	<polygon id="XMLID_1019_" class="st30" points="35.2,34.4 28.4,34.4 29.5,32.5 34.1,32.5 	"/>
	<circle id="XMLID_1035_" class="st8" cx="31.9" cy="19.5" r="7.6"/>
	<rect id="XMLID_1034_" x="28.2" y="21.6" class="st8" width="7.4" height="8.4"/>
	<rect id="XMLID_1033_" x="28.2" y="29.8" class="st13" width="7.6" height="3"/>
	<line id="XMLID_1030_" class="st7" x1="29.7" y1="36.5" x2="29.7" y2="43.1"/>
	<line id="XMLID_1029_" class="st7" x1="19.8" y1="26.4" x2="19.8" y2="33.1"/>
	<line id="XMLID_1028_" class="st7" x1="17.3" y1="30.3" x2="17.3" y2="36.9"/>
	<line id="XMLID_1027_" class="st7" x1="44.4" y1="26.9" x2="44.4" y2="33.6"/>
	<line id="XMLID_1026_" class="st7" x1="46.9" y1="25.6" x2="46.9" y2="32.3"/>
	<line id="XMLID_1036_" class="st7" x1="28.5" y1="19.5" x2="35.1" y2="19.5"/>
	<line id="XMLID_1025_" class="st7" x1="44.4" y1="36.5" x2="44.4" y2="34.6"/>
	<line id="XMLID_1024_" class="st7" x1="38.5" y1="42" x2="38.5" y2="37.9"/>
	<line id="XMLID_1023_" class="st7" x1="19.8" y1="38" x2="19.8" y2="35"/>
	<line id="XMLID_1022_" class="st7" x1="25" y1="41.3" x2="25" y2="36.4"/>
	<line id="XMLID_1021_" class="st7" x1="34.1" y1="36.5" x2="34.1" y2="43.1"/>
	<line id="XMLID_1020_" class="st7" x1="31.9" y1="38" x2="31.9" y2="44.6"/>
	<path id="XMLID_998_" class="st5" d="M51.3,51.4c0-0.9-0.7-1.7-1.7-1.7c-0.3,0-0.6,0.1-0.8,0.2c-0.4-1.1-1.2-2-2.3-2.5
		c-0.1-2.2-1.9-4-4.2-4c-1.9,0-3.4,1.2-4,2.9c-0.3-0.5-0.8-0.8-1.4-0.8c-0.6,0-1.1,0.3-1.4,0.8c-0.5-0.8-1.3-1.3-2.3-1.3
		c-0.7,0-1.4,0.3-1.9,0.7c-0.6-1.1-1.8-1.9-3.2-1.9c-1.9,0-3.5,1.4-3.7,3.3c-0.5-0.2-1-0.3-1.5-0.3c-0.4,0-0.7,0.1-1.1,0.2
		c-0.8-0.8-1.8-1.4-3.1-1.4c-2,0-3.6,1.4-4,3.2c-1.1,0-2,0.9-2,2c0,0.4,0.1,0.8,0.3,1.1h38.1C51.2,51.9,51.3,51.7,51.3,51.4z"/>
	<path id="XMLID_997_" class="st7" d="M49.6,49.8c-0.3,0-0.6,0.1-0.8,0.2c-0.4-1.1-1.2-2-2.3-2.5c-0.1-2.2-1.9-4-4.2-4
		c-1.9,0-3.4,1.2-4,2.9c-0.3-0.5-0.8-0.8-1.4-0.8"/>
	<path id="XMLID_996_" class="st7" d="M31.4,46c-0.6-1.1-1.8-1.9-3.2-1.9c-1.9,0-3.5,1.4-3.7,3.3c-0.5-0.2-1-0.3-1.5-0.3
		c-0.4,0-0.7,0.1-1.1,0.2c-0.8-0.8-1.8-1.4-3.1-1.4c-2,0-3.6,1.4-4,3.2"/>
	<line id="XMLID_995_" class="st7" x1="13" y1="52.1" x2="51.1" y2="52.1"/>
	<line id="XMLID_1032_" class="st7" x1="31.8" y1="29.7" x2="31.9" y2="19.5"/>
</g>
<g id="XMLID_1287_" class="st0">
	<g id="XMLID_1281_" class="st1">
		<line id="XMLID_1283_" class="st3" x1="20.3" y1="14.6" x2="22.6" y2="16.9"/>
		<line id="XMLID_1282_" class="st3" x1="20.3" y1="16.9" x2="22.6" y2="14.6"/>
	</g>
	<g id="XMLID_1284_" class="st1">
		<line id="XMLID_1286_" class="st3" x1="37.2" y1="18.3" x2="39.5" y2="20.6"/>
		<line id="XMLID_1285_" class="st3" x1="37.2" y1="20.6" x2="39.5" y2="18.3"/>
	</g>
	<path id="XMLID_1241_" class="st7" d="M23.3,26.8c0,1-2,1-2,2c0,1,2,1,2,2c0,1-2,1-2,2c0,1,2,1,2,2"/>
	<path id="XMLID_1238_" class="st7" d="M32.1,14.8c0,1-2,1-2,2c0,1,2,1,2,2c0,1-2,1-2,2c0,1,2,1,2,2"/>
	<rect id="XMLID_1232_" x="19.1" y="42.1" class="st36" width="6.5" height="6.1"/>
	<rect id="XMLID_1233_" x="28.1" y="32.8" class="st8" width="6.5" height="15.4"/>
	<rect id="XMLID_1234_" x="37.1" y="24.5" class="st12" width="6.5" height="23.7"/>
	<line id="XMLID_1236_" class="st7" x1="13.3" y1="48.3" x2="50.1" y2="48.3"/>
	<line id="XMLID_1237_" class="st37" x1="16.3" y1="50" x2="16.3" y2="14"/>
	<polyline id="XMLID_1235_" class="st7" points="45.4,19.4 48,16.7 50.7,19.4 	"/>
	<line id="XMLID_1239_" class="st7" x1="48" y1="17.1" x2="48" y2="46.4"/>
</g>
<g id="XMLID_1296_" class="st0">
	<path id="XMLID_1289_" class="st7" d="M24.9,29V17.9c0-3.9,3.2-7.1,7.1-7.1l0,0c3.9,0,7.1,3.2,7.1,7.1V29"/>
	<g id="XMLID_1305_" class="st1">
		<rect id="XMLID_1316_" x="26.9" y="47.2" class="st24" width="9.9" height="5.9"/>
		<rect id="XMLID_1315_" x="26.9" y="47.2" class="st38" width="9.9" height="2.9"/>
		<rect id="XMLID_1314_" x="26.9" y="47.2" class="st3" width="9.9" height="5.9"/>
		<rect id="XMLID_1313_" x="15.5" y="24.8" class="st39" width="32.8" height="19.5"/>
		<rect id="XMLID_1312_" x="17.2" y="26.7" class="st10" width="29.3" height="15.4"/>
		<rect id="XMLID_1310_" x="15.5" y="43.6" class="st10" width="32.8" height="4.4"/>
		<rect id="XMLID_1309_" x="15.5" y="24.8" class="st3" width="32.8" height="23.2"/>
		<line id="XMLID_1308_" class="st3" x1="15.5" y1="43.7" x2="48.3" y2="43.7"/>
		<line id="XMLID_1307_" class="st3" x1="25" y1="53.2" x2="38.9" y2="53.2"/>
	</g>
	<path id="XMLID_1288_" class="st12" d="M40.5,40.7H23.2c-0.5,0-1-0.5-1-1V22.4c0-0.5,0.5-1,1-1h17.3c0.5,0,1,0.5,1,1v17.3
		C41.5,40.2,41.1,40.7,40.5,40.7z"/>
	<path id="XMLID_1295_" class="st34" d="M40.5,21.4v17.3c0,0.5-0.5,1-1,1H22.2c0,0.5,0.5,1,1,1h17.3c0.5,0,1-0.5,1-1V22.4
		C41.5,21.8,41.1,21.4,40.5,21.4z"/>
	<circle id="XMLID_1290_" class="st33" cx="31.9" cy="28.6" r="2.4"/>
	<path id="XMLID_1291_" class="st33" d="M31.9,35.5L31.9,35.5c-0.6,0-1.1-0.5-1.1-1.1v-4.6c0-0.6,0.5-1.1,1.1-1.1l0,0
		c0.6,0,1.1,0.5,1.1,1.1v4.6C32.9,35,32.5,35.5,31.9,35.5z"/>
	<line id="XMLID_1293_" class="st7" x1="12" y1="13.7" x2="23" y2="13.7"/>
	<line id="XMLID_1292_" class="st7" x1="16.8" y1="16.9" x2="23" y2="16.9"/>
	<line id="XMLID_1294_" class="st7" x1="19.9" y1="20.1" x2="23" y2="20.1"/>
	<line id="XMLID_1299_" class="st7" x1="52" y1="13.7" x2="41" y2="13.7"/>
	<line id="XMLID_1298_" class="st7" x1="47.2" y1="16.9" x2="41" y2="16.9"/>
	<line id="XMLID_1297_" class="st7" x1="44.1" y1="20.1" x2="41" y2="20.1"/>
</g>
<g id="XMLID_1343_" class="st0">
	<g id="XMLID_1318_" class="st1">
		<line id="XMLID_1320_" class="st3" x1="11.4" y1="23.5" x2="13.7" y2="25.8"/>
		<line id="XMLID_1319_" class="st3" x1="11.4" y1="25.8" x2="13.7" y2="23.5"/>
	</g>
	<g id="XMLID_1321_" class="st1">
		<line id="XMLID_1330_" class="st3" x1="44" y1="39.6" x2="46.3" y2="41.9"/>
		<line id="XMLID_1322_" class="st3" x1="44" y1="41.9" x2="46.3" y2="39.6"/>
	</g>
	<g id="XMLID_1331_" class="st1">
		<line id="XMLID_1333_" class="st3" x1="49.9" y1="43.8" x2="52.6" y2="46.5"/>
		<line id="XMLID_1332_" class="st3" x1="49.9" y1="46.5" x2="52.6" y2="43.8"/>
	</g>
	<g id="XMLID_1337_" class="st1">
		<line id="XMLID_1339_" class="st3" x1="23.5" y1="12.2" x2="26.2" y2="14.9"/>
		<line id="XMLID_1338_" class="st3" x1="23.5" y1="14.9" x2="26.2" y2="12.2"/>
	</g>
	<g id="XMLID_1334_" class="st1">
		<line id="XMLID_1336_" class="st3" x1="39.6" y1="48.7" x2="43.1" y2="52.2"/>
		<line id="XMLID_1335_" class="st3" x1="39.6" y1="52.2" x2="43.1" y2="48.7"/>
	</g>
	<g id="XMLID_1340_" class="st1">
		<line id="XMLID_1342_" class="st3" x1="12" y1="11.8" x2="15.5" y2="15.3"/>
		<line id="XMLID_1341_" class="st3" x1="12" y1="15.3" x2="15.5" y2="11.8"/>
	</g>
	<path id="XMLID_1329_" class="st6" d="M50.5,31.6c0,0-8.5,10.1-19,10.1c-10.5,0-19-10.1-19-10.1s8.5-10.1,19-10.1
		C42,21.5,50.5,31.6,50.5,31.6z"/>
	<path id="XMLID_1328_" class="st7" d="M50.5,31.6c0,0-8.5,10.1-19,10.1c-10.5,0-19-10.1-19-10.1s8.5-10.1,19-10.1
		C42,21.5,50.5,31.6,50.5,31.6z"/>
	<g id="XMLID_1325_" class="st1">
		<path id="XMLID_1327_" class="st22" d="M31.5,23.5c-4.4,0-8,3.6-8,8l16.1,0C39.6,27.1,36,23.5,31.5,23.5z"/>
		<path id="XMLID_1326_" class="st22" d="M23.5,31.6c0,4.4,3.6,8,8,8c4.4,0,8-3.6,8-8c0,0,0,0,0,0L23.5,31.6
			C23.5,31.5,23.5,31.5,23.5,31.6z"/>
	</g>
	<circle id="XMLID_1324_" class="st7" cx="31.5" cy="31.6" r="8"/>
	<circle id="XMLID_1300_" class="st15" cx="31.5" cy="31.6" r="13.6"/>
	<circle id="XMLID_1317_" class="st15" cx="31.5" cy="31.6" r="13.6"/>
	<circle id="XMLID_1323_" class="st27" cx="31.5" cy="31.5" r="2.9"/>
	<g id="XMLID_1301_" class="st1">
		<path id="XMLID_1303_" class="st9" d="M31.2,36.5v-0.9c-1.1-0.1-2.1-0.5-3-1.3l0.9-1c0.7,0.6,1.4,0.9,2.1,1V32
			c-0.9-0.2-1.6-0.5-2-0.9c-0.4-0.4-0.6-0.9-0.6-1.6c0-0.7,0.2-1.3,0.7-1.7c0.5-0.4,1.1-0.7,1.9-0.7v-0.6H32v0.6
			c0.9,0.1,1.7,0.4,2.5,0.9l-0.8,1.1c-0.5-0.4-1.1-0.6-1.7-0.7v2.3h0c0.9,0.2,1.6,0.5,2,0.9c0.4,0.4,0.6,0.9,0.6,1.6
			c0,0.7-0.2,1.3-0.7,1.7c-0.5,0.4-1.2,0.7-2,0.7v0.9H31.2z M30.4,28.8c-0.2,0.2-0.3,0.4-0.3,0.7c0,0.3,0.1,0.5,0.2,0.6
			c0.2,0.2,0.5,0.3,0.9,0.5v-2.1C30.8,28.5,30.6,28.6,30.4,28.8z M32.9,34c0.2-0.2,0.3-0.4,0.3-0.7c0-0.3-0.1-0.5-0.3-0.7
			c-0.2-0.2-0.5-0.3-1-0.5v2.2C32.4,34.3,32.7,34.2,32.9,34z"/>
	</g>
</g>
<g id="XMLID_1_" class="st0">
	<path id="XMLID_1344_" class="st5" d="M49.6,32.7c0.1,0.3,0-1.1,0-1.1c0-9.6-7.8-17.4-17.4-17.4c-9.6,0-17.4,7.8-17.4,17.4v1.1
		c0.5-4.8,9.3-10.1,11.5-0.2l0.7,0.2c-0.1-6.7,10.4-8,10.6-0.2l0.8,0.1C37.8,27.3,47.3,23.2,49.6,32.7z"/>
	<path id="XMLID_1352_" class="st7" d="M49.6,32.7v-1.1c0-9.6-7.8-17.4-17.4-17.4c-9.6,0-17.4,7.8-17.4,17.4v1.1"/>
	<path id="XMLID_1350_" class="st7" d="M26.5,32.7c0-3.2,2.6-5.8,5.8-5.8c3.2,0,5.8,2.6,5.8,5.8"/>
	<path id="XMLID_1349_" class="st7" d="M38,32.7c0-3.2,2.6-5.8,5.8-5.8c3.2,0,5.8,2.6,5.8,5.8"/>
	<path id="XMLID_1363_" class="st7" d="M15,32.7c0-3.2,2.6-5.8,5.8-5.8c3.2,0,5.8,2.6,5.8,5.8"/>
	<line id="XMLID_1347_" class="st7" x1="32.1" y1="27.2" x2="32.1" y2="43.6"/>
	<path id="XMLID_1345_" class="st40" d="M32,14.2c0,0,6.6,2.3,6,16.9"/>
	<path id="XMLID_1346_" class="st40" d="M32.7,14.2c0,0-6.6,2.3-6,16.9"/>
	<rect id="XMLID_1348_" x="21.6" y="35.5" class="st27" width="20.5" height="3.5"/>
	<rect id="XMLID_1351_" x="22.7" y="39" class="st8" width="20.5" height="3.5"/>
	<rect id="XMLID_1357_" x="20.7" y="42.5" class="st27" width="20.5" height="3.5"/>
	<rect id="XMLID_1358_" x="22.1" y="46.1" class="st8" width="20.5" height="3.5"/>
	<line id="XMLID_1360_" class="st7" x1="24.2" y1="35.5" x2="24.2" y2="39"/>
	<line id="XMLID_1359_" class="st7" x1="26" y1="35.5" x2="26" y2="39"/>
	<line id="XMLID_1362_" class="st7" x1="37.5" y1="39" x2="37.5" y2="42.5"/>
	<line id="XMLID_1361_" class="st7" x1="39.3" y1="39" x2="39.3" y2="42.5"/>
	<line id="XMLID_1354_" class="st7" x1="38.4" y1="46.1" x2="38.4" y2="49.6"/>
	<line id="XMLID_1353_" class="st7" x1="40.2" y1="46.1" x2="40.2" y2="49.6"/>
	<line id="XMLID_1356_" class="st7" x1="11.8" y1="49.8" x2="52.2" y2="49.8"/>
	<line id="XMLID_1365_" class="st7" x1="22.7" y1="42.5" x2="22.7" y2="46.1"/>
	<line id="XMLID_1364_" class="st7" x1="24.5" y1="42.5" x2="24.5" y2="46.1"/>
</g>
<g id="XMLID_2_" class="st0">
	<g id="XMLID_1375_" class="st1">
		<path id="XMLID_1391_" class="st38" d="M52.8,38.7v-3.2c0-3.6-2.9-6.5-6.5-6.5l0,0c-3.6,0-6.5,2.9-6.5,6.5v3.2H52.8z"/>
		<g id="XMLID_1374_">
			<path id="XMLID_1373_" class="st41" d="M50.1,26.6v-1.8c0-2.1-1.7-3.8-3.8-3.8l0,0c-2.1,0-3.8,1.7-3.8,3.8v1.8H50.1z"/>
			<path id="XMLID_1372_" class="st25" d="M42.7,27.7h-0.2c-0.2,0-0.4-0.2-0.4-0.4v-0.7c0-0.2,0.2-0.4,0.4-0.4h0.2V27.7z"/>
			<path id="XMLID_1371_" class="st25" d="M49.8,27.7H50c0.2,0,0.4-0.2,0.4-0.4v-0.7c0-0.2-0.2-0.4-0.4-0.4h-0.2V27.7z"/>
			<path id="XMLID_1370_" class="st25" d="M42.7,25.5l0,2.2c0,1.9,1.6,3.5,3.5,3.5l0,0c1.9,0,3.5-1.6,3.5-3.5l0-1.9
				c-2.6-0.5-4.5-1.9-5.1-2.3C44.7,23.6,43.7,25.2,42.7,25.5z"/>
		</g>
	</g>
	<g id="XMLID_1376_" class="st1">
		<path id="XMLID_1401_" class="st38" d="M24.3,38.7v-3.2c0-3.6-2.9-6.5-6.5-6.5l0,0c-3.6,0-6.5,2.9-6.5,6.5v3.2H24.3z"/>
		<g id="XMLID_1392_">
			<path id="XMLID_1400_" class="st41" d="M21.6,26.6v-1.8c0-2.1-1.7-3.8-3.8-3.8l0,0c-2.1,0-3.8,1.7-3.8,3.8v1.8H21.6z"/>
			<path id="XMLID_1399_" class="st25" d="M14.2,27.7H14c-0.2,0-0.4-0.2-0.4-0.4v-0.7c0-0.2,0.2-0.4,0.4-0.4h0.2V27.7z"/>
			<path id="XMLID_1398_" class="st25" d="M21.3,27.7h0.2c0.2,0,0.4-0.2,0.4-0.4v-0.7c0-0.2-0.2-0.4-0.4-0.4h-0.2V27.7z"/>
			<path id="XMLID_1397_" class="st25" d="M14.2,25.5l0,2.2c0,1.9,1.6,3.5,3.5,3.5l0,0c1.9,0,3.5-1.6,3.5-3.5l0-1.9
				c-2.6-0.5-4.5-1.9-5.1-2.3C16.2,23.6,15.2,25.2,14.2,25.5z"/>
		</g>
	</g>
	<g id="XMLID_1369_" class="st1">
		<path id="XMLID_1355_" class="st11" d="M42.2,47.8v-5.1c0-5.6-4.6-10.2-10.2-10.2l0,0c-5.6,0-10.2,4.6-10.2,10.2v5.1H42.2z"/>
		<path id="XMLID_1366_" class="st3" d="M21.8,47.8v-5.1c0-5.6,4.6-10.2,10.2-10.2l0,0c5.6,0,10.2,4.6,10.2,10.2v5.1"/>
		<path id="XMLID_1396_" class="st10" d="M25.3,27.4c0,0.5-0.4,0.9-0.9,0.9l0,0c-0.5,0-0.9-0.4-0.9-0.9v-0.9c0-0.5,0.4-0.9,0.9-0.9
			l0,0c0.5,0,0.9,0.4,0.9,0.9V27.4z"/>
		<path id="XMLID_1395_" class="st16" d="M25.3,27.4c0,0.5-0.4,0.9-0.9,0.9l0,0c-0.5,0-0.9-0.4-0.9-0.9v-0.9c0-0.5,0.4-0.9,0.9-0.9
			l0,0c0.5,0,0.9,0.4,0.9,0.9V27.4z"/>
		<path id="XMLID_1394_" class="st10" d="M40.2,27.4c0,0.5-0.4,0.9-0.9,0.9l0,0c-0.5,0-0.9-0.4-0.9-0.9v-0.9c0-0.5,0.4-0.9,0.9-0.9
			l0,0c0.5,0,0.9,0.4,0.9,0.9V27.4z"/>
		<path id="XMLID_1393_" class="st16" d="M40.2,27.4c0,0.5-0.4,0.9-0.9,0.9l0,0c-0.5,0-0.9-0.4-0.9-0.9v-0.9c0-0.5,0.4-0.9,0.9-0.9
			l0,0c0.5,0,0.9,0.4,0.9,0.9V27.4z"/>
		<path id="XMLID_1390_" class="st10" d="M38.8,20.9v7.3c0,3.9-3.1,7-7,7l0,0c-3.9,0-7-3.1-7-7v-7.3H38.8z"/>
		<path id="XMLID_1389_" class="st16" d="M38.8,20.9v7.3c0,3.9-3.1,7-7,7l0,0c-3.9,0-7-3.1-7-7v-7.3H38.8z"/>
		<path id="XMLID_1388_" class="st22" d="M41.3,16.2v3c0,1.6-1.3,2.8-2.8,2.8H27.1c-0.8,0-1.4,0.6-1.4,1.4v1.9
			c0,0.2-0.1,0.3-0.3,0.3H24c-0.2,0-0.3-0.1-0.3-0.3v-5.4c0.4-1.3,2-0.8,2-0.8c0-1.6,1.3-2.8,2.8-2.8H41.3z"/>
		<path id="XMLID_1387_" class="st42" d="M38.1,20.8c1.7,0,3.1-1.4,3.1-3.1v-1.6H28.5c-1.6,0-2.8,1.3-2.8,2.8c0,0-1.5-0.5-2,0.8v5.5
			h0.6c0.2,0,0.3-0.1,0.3-0.3v-2.7c0-0.9,0.7-1.5,1.5-1.5H38.1z"/>
		<path id="XMLID_1386_" class="st16" d="M41.3,16.2v3c0,1.6-1.3,2.8-2.8,2.8H27.1c-0.8,0-1.4,0.6-1.4,1.4v1.9
			c0,0.2-0.1,0.3-0.3,0.3H24c-0.2,0-0.3-0.1-0.3-0.3v-5.4c0.4-1.3,2-0.8,2-0.8c0-1.6,1.3-2.8,2.8-2.8H41.3z"/>
		<line id="XMLID_1368_" class="st3" x1="27.1" y1="42" x2="27.1" y2="47.8"/>
		<line id="XMLID_1367_" class="st3" x1="37.5" y1="42" x2="37.5" y2="47.8"/>
	</g>
</g>
<g id="XMLID_1453_" class="st0">
	<path id="XMLID_1445_" class="st7" d="M15.2,20.2c0,0.9-1.9,0.9-1.9,1.8c0,0.9,1.9,0.9,1.9,1.8c0,0.9-1.9,0.9-1.9,1.8
		c0,0.9,1.9,0.9,1.9,1.8"/>
	<path id="XMLID_1446_" class="st7" d="M23.5,12.9c0,0.9-1.9,0.9-1.9,1.8c0,0.9,1.9,0.9,1.9,1.8c0,0.9-1.9,0.9-1.9,1.8
		c0,0.9,1.9,0.9,1.9,1.8"/>
	<path id="XMLID_1447_" class="st7" d="M34,20c0,0.9-1.9,0.9-1.9,1.8c0,0.9,1.9,0.9,1.9,1.8c0,0.9-1.9,0.9-1.9,1.8
		c0,0.9,1.9,0.9,1.9,1.8"/>
	<path id="XMLID_1448_" class="st7" d="M50.6,26c0,0.9-1.9,0.9-1.9,1.8c0,0.9,1.9,0.9,1.9,1.8c0,0.9-1.9,0.9-1.9,1.8
		s1.9,0.9,1.9,1.8"/>
	<polyline id="XMLID_1428_" class="st7" points="46.4,39.4 47.6,38.2 48.8,39.4 	"/>
	<polyline id="XMLID_1425_" class="st7" points="35.9,39.5 37.1,38.3 38.3,39.5 	"/>
	<path id="XMLID_1431_" class="st8" d="M20.2,39.9c0,2.6-2.1,4.7-4.7,4.7c-2.6,0,0-2.1,0-4.7c0-2.6-2.6-4.7,0-4.7
		C18.1,35.2,20.2,37.3,20.2,39.9z"/>
	<path id="XMLID_1429_" class="st8" d="M30.1,32c0,2.6-2.1,4.7-4.7,4.7c-2.6,0,0-2.1,0-4.7c0-2.6-2.6-4.7,0-4.7
		C27.9,27.2,30.1,29.4,30.1,32z"/>
	<path id="XMLID_1427_" class="st8" d="M27.7,48.8c-0.8,1.9-3.1,2.8-5,1.9c-1.9-0.8,0.7-1.6,1.5-3.5c0.8-1.9-0.4-4.3,1.5-3.5
		C27.6,44.6,28.5,46.9,27.7,48.8z"/>
	<path id="XMLID_1402_" class="st27" d="M30.4,39.2l5,3.9c-0.5,1.1-1.2,2.1-2,3c-0.9,0.9-1.9,1.5-3,2c-1.1,0.5-2.4,0.7-3.7,0.7
		c-1.3,0-2.5-0.3-3.7-0.7c-1.1-0.5-2.1-1.2-3-2c-0.9-0.9-1.5-1.9-2-3c-0.5-1.1-0.7-2.4-0.7-3.7s0.3-2.5,0.7-3.7c0.5-1.1,1.2-2.1,2-3
		c0.9-0.9,1.9-1.5,3-2c1.1-0.5,2.4-0.7,3.7-0.7c1.3,0,2.5,0.3,3.7,0.7c1.1,0.5,2.1,1.2,3,2c0.9,0.9,1.5,1.9,2,3L30.4,39.2z"/>
	<path id="XMLID_1432_" class="st8" d="M33.8,45.2c-0.9,0.9-1.9,1.5-3,2c-1.1,0.5-2.4,0.7-3.7,0.7c-1.3,0-2.5-0.3-3.7-0.7
		c-1.1-0.5-2.1-1.2-3-2c-0.9-0.9-1.5-1.9-2-3c-0.5-1.1-0.7-2.4-0.7-3.7c0-1.2,0.2-2.3,0.6-3.3c-0.1,0.2-0.2,0.4-0.3,0.6
		c-0.5,1.1-0.7,2.4-0.7,3.7s0.3,2.5,0.7,3.7c0.5,1.1,1.2,2.1,2,3c0.9,0.9,1.9,1.5,3,2c1.1,0.5,2.4,0.7,3.7,0.7
		c1.3,0,2.5-0.3,3.7-0.7c1.1-0.5,2.1-1.2,3-2c0.9-0.9,1.5-1.9,2-3l0,0C34.9,43.9,34.4,44.6,33.8,45.2z"/>
	<g id="XMLID_1404_" class="st1">
		<path id="XMLID_1405_" class="st9" d="M25.5,43.8v-0.8c-1-0.1-1.8-0.5-2.6-1.2l0.8-0.9c0.6,0.5,1.2,0.8,1.8,0.9v-2.1
			c-0.8-0.2-1.4-0.4-1.8-0.8c-0.4-0.3-0.6-0.8-0.6-1.4c0-0.6,0.2-1.1,0.6-1.5c0.4-0.4,1-0.6,1.7-0.6v-0.5h0.7v0.5
			c0.8,0.1,1.5,0.3,2.2,0.8l-0.7,1c-0.5-0.3-1-0.5-1.5-0.6v2h0c0.8,0.2,1.4,0.4,1.8,0.8c0.4,0.3,0.6,0.8,0.6,1.4
			c0,0.6-0.2,1.1-0.7,1.5c-0.4,0.4-1,0.6-1.7,0.6v0.8H25.5z M24.7,37c-0.2,0.2-0.3,0.4-0.3,0.6c0,0.2,0.1,0.4,0.2,0.6
			c0.1,0.1,0.4,0.3,0.8,0.4v-1.8C25.2,36.7,24.9,36.8,24.7,37z M27,41.6c0.2-0.2,0.3-0.4,0.3-0.6c0-0.2-0.1-0.4-0.2-0.6
			c-0.2-0.1-0.4-0.3-0.9-0.4v1.9C26.5,41.9,26.8,41.8,27,41.6z"/>
	</g>
	<circle id="XMLID_1403_" class="st33" cx="30.1" cy="35.2" r="0.6"/>
	<path id="XMLID_1410_" class="st7" d="M42.2,14.7v28.4h-0.9c-2.3,0-4.2-1.9-4.2-4.2l0,0"/>
	<path id="XMLID_1409_" class="st7" d="M42.5,43.1h0.9c2.3,0,4.2-1.9,4.2-4.2l0,0"/>
	<circle id="XMLID_1449_" class="st7" cx="20.2" cy="26" r="1"/>
	<circle id="XMLID_1450_" class="st7" cx="28.6" cy="18.2" r="1"/>
	<circle id="XMLID_1451_" class="st7" cx="38.2" cy="31.2" r="1"/>
	<circle id="XMLID_1452_" class="st7" cx="48.8" cy="18.2" r="1"/>
</g>
<g id="XMLID_727_">
	<rect id="XMLID_1454_" x="18.4" y="14.9" class="st24" width="32.8" height="34.5"/>
	<rect id="XMLID_1456_" x="18.4" y="14.2" class="st11" width="32.8" height="4.2"/>
	<rect id="XMLID_1455_" x="18.4" y="14.2" class="st3" width="32.8" height="4.2"/>
	<rect id="XMLID_1457_" x="21" y="22.3" class="st42" width="13.2" height="9.8"/>
	<line id="XMLID_1459_" class="st3" x1="35.5" y1="23.8" x2="49.1" y2="23.8"/>
	<line id="XMLID_1458_" class="st3" x1="35.5" y1="27.8" x2="49.1" y2="27.8"/>
	<line id="XMLID_1460_" class="st3" x1="35.5" y1="31.8" x2="49.1" y2="31.8"/>
	<line id="XMLID_1461_" class="st3" x1="22" y1="37.8" x2="47" y2="37.8"/>
	<line id="XMLID_1462_" class="st3" x1="29.3" y1="40.6" x2="39.5" y2="40.6"/>
	<rect id="XMLID_1463_" x="21.9" y="42.4" class="st25" width="5.1" height="5.1"/>
	<rect id="XMLID_1464_" x="28.6" y="42.4" class="st25" width="5.1" height="5.1"/>
	<rect id="XMLID_1465_" x="35.2" y="42.4" class="st25" width="5.1" height="5.1"/>
	<rect id="XMLID_1466_" x="41.9" y="42.4" class="st25" width="5.1" height="5.1"/>
	<circle id="XMLID_1467_" class="st24" cx="21" cy="16.3" r="0.5"/>
	<circle id="XMLID_1468_" class="st24" cx="23.1" cy="16.3" r="0.5"/>
	<circle id="XMLID_1469_" class="st24" cx="25.2" cy="16.3" r="0.5"/>
	<g id="XMLID_1470_">
		<path id="XMLID_1477_" class="st10" d="M51.6,26.3v22.8h-2.4V26.3l1.1-3c0-0.1,0.1-0.1,0.1,0L51.6,26.3z"/>
		<rect id="XMLID_1476_" x="49.2" y="26.3" class="st11" width="2.4" height="22.8"/>
		<rect id="XMLID_1475_" x="49.2" y="26.3" class="st43" width="1.2" height="22.8"/>
		<rect id="XMLID_1474_" x="49.1" y="46.2" class="st10" width="2.6" height="2.8"/>
		<path id="XMLID_1473_" class="st3" d="M51.6,26.3v22.8h-2.4V26.3l1.1-3c0-0.1,0.1-0.1,0.1,0L51.6,26.3z"/>
		<line id="XMLID_1472_" class="st3" x1="49.2" y1="46.2" x2="51.3" y2="46.2"/>
		<line id="XMLID_1471_" class="st3" x1="49.3" y1="26.3" x2="51.4" y2="26.3"/>
	</g>
	<g id="XMLID_1479_">
		<line id="XMLID_1488_" class="st3" x1="19.7" y1="34.6" x2="19.7" y2="37.7"/>
		<path id="XMLID_1485_" class="st14" d="M19.7,20.2c-4.1,0-7.4,3.3-7.4,7.4c0,4.1,3.3,7.4,7.4,7.4c4.1,0,7.4-3.3,7.4-7.4
			C27.1,23.5,23.8,20.2,19.7,20.2z M19.7,34.2c-3.6,0-6.6-2.9-6.6-6.6c0-3.6,2.9-6.6,6.6-6.6s6.6,2.9,6.6,6.6
			C26.3,31.3,23.4,34.2,19.7,34.2z"/>
		<path id="XMLID_1484_" class="st3" d="M19.7,22.5c2.8,0,5.1,2.3,5.1,5.1"/>
		<path id="XMLID_1483_" class="st2" d="M18.3,36.8v11.6c0,0.8,0.7,1.5,1.5,1.5v-13H18.3z"/>
		<path id="XMLID_1482_" class="st11" d="M19.7,36.8v13c0.8,0,1.5-0.7,1.5-1.5V36.8H19.7z"/>
		<line id="XMLID_1481_" class="st3" x1="18.2" y1="38.9" x2="21.3" y2="38.9"/>
		<line id="XMLID_1480_" class="st3" x1="18.2" y1="40.2" x2="21.3" y2="40.2"/>
	</g>
</g>
<g id="XMLID_1504_" class="st0">
	<rect id="XMLID_1478_" x="16" y="13.7" class="st13" width="27.3" height="36.5"/>
	<rect id="XMLID_1489_" x="21.9" y="13.7" class="st8" width="2.9" height="36.5"/>
	<rect id="XMLID_1494_" x="19" y="13.7" class="st8" width="1.7" height="36.5"/>
	<polygon id="XMLID_1490_" class="st8" points="27,21.8 25.9,19.9 27,18 29.2,18 30.3,19.9 29.2,21.8 	"/>
	<line id="XMLID_1492_" class="st7" x1="31.3" y1="19.9" x2="41.7" y2="19.9"/>
	<rect id="XMLID_1493_" x="13.5" y="43" class="st4" width="13.1" height="7.3"/>
	<polyline id="XMLID_1502_" class="st7" points="13.5,43 26.6,43 26.6,50.3 	"/>
	<polygon id="XMLID_1495_" class="st8" points="19.5,47.1 18.9,46.1 19.5,45.2 20.6,45.2 21.2,46.1 20.6,47.1 	"/>
	<line id="XMLID_1496_" class="st7" x1="17.1" y1="48.6" x2="22.9" y2="48.6"/>
	<rect id="XMLID_1500_" x="30.8" y="38.8" class="st5" width="18.5" height="11.4"/>
	<polygon id="XMLID_1499_" class="st4" points="49.2,50.2 40,43.4 30.8,50.2 	"/>
	<polygon id="XMLID_1498_" class="st8" points="49.2,38.8 40,45.5 30.8,38.8 	"/>
	<polyline id="XMLID_1497_" class="st7" points="30.8,50.2 30.8,38.8 49.2,38.8 	"/>
	<g id="XMLID_399_" class="st1">
		<path id="XMLID_423_" class="st10" d="M50.5,27v22.8H48V27l1.1-3c0-0.1,0.1-0.1,0.1,0L50.5,27z"/>
		<rect id="XMLID_422_" x="48" y="27" class="st44" width="2.4" height="22.8"/>
		<rect id="XMLID_421_" x="48" y="27" class="st22" width="1.2" height="22.8"/>
		<rect id="XMLID_420_" x="48" y="47" class="st10" width="2.6" height="2.8"/>
		<path id="XMLID_418_" class="st3" d="M50.5,27v22.8H48V27l1.1-3c0-0.1,0.1-0.1,0.1,0L50.5,27z"/>
		<line id="XMLID_416_" class="st3" x1="48" y1="47" x2="50.2" y2="47"/>
		<line id="XMLID_415_" class="st3" x1="48.2" y1="27" x2="50.3" y2="27"/>
	</g>
	<polyline id="XMLID_1491_" class="st7" points="16,41.9 16,13.7 43.3,13.7 	"/>
</g>
</svg>
